<svg xmlns="http://www.w3.org/2000/svg" viewBox="0 0 124.5 146"><defs><style>.Graphic-Style{opacity:0.5;}.cls-1{fill:#d8ae40;}.cls-2{fill:#fac747;}.cls-3{fill:#fffdec;}.cls-4{fill:#4a4944;}</style></defs><title>Fichier 6</title><g id="Calque_2" data-name="Calque 2"><g id="elements"><path class="Graphic-Style" d="M111.5,62.75h-4.62V45.38A42.42,42.42,0,0,0,64.5,3H60A42.42,42.42,0,0,0,17.63,45.38V62.75H13a13,13,0,0,0-13,13V133a13,13,0,0,0,13,13h98.5a13,13,0,0,0,13-13V75.75A13,13,0,0,0,111.5,62.75Zm-78.87,0V45.38A27.41,27.41,0,0,1,60,18h4.5A27.41,27.41,0,0,1,91.88,45.38V62.75Z"/><rect class="cls-1" y="59.75" width="124.5" height="83.25" rx="13" ry="13"/><rect class="cls-2" x="17.13" y="59.75" width="90.25" height="83.25"/><path class="cls-3" d="M32.63,59.75V42.38A27.41,27.41,0,0,1,60,15h4.5A27.41,27.41,0,0,1,91.88,42.38V59.75h15V42.38A42.42,42.42,0,0,0,64.5,0H60A42.42,42.42,0,0,0,17.63,42.38V59.75Z"/><path class="cls-4" d="M73.75,99.25A11.25,11.25,0,1,0,59.21,110L56.5,126.75h12L65.79,110A11.25,11.25,0,0,0,73.75,99.25Z"/></g></g></svg>