<svg xmlns="http://www.w3.org/2000/svg" viewBox="0 0 156.78 156.78"><defs><style>.cls-1{isolation:isolate;}.cls-2{fill:#ec5947;}.cls-3{opacity:0.5;mix-blend-mode:soft-light;}.cls-4{fill:#fff;}</style></defs><title>Fichier 8</title><g class="cls-1"><g id="Calque_2" data-name="Calque 2"><g id="elements"><rect class="cls-2" width="156.78" height="156.78" rx="13" ry="13"/><path class="cls-3" d="M143.78,156.78a13,13,0,0,0,13-13V13a13,13,0,0,0-13-13H78.39V156.78Z"/><path class="cls-4" d="M117.64,99.51,98.95,80.81l18.69-18.69a4,4,0,0,0,0-5.66l-14.9-14.9a4,4,0,0,0-5.66,0L78.39,60.25,59.7,41.56a4,4,0,0,0-5.66,0l-14.9,14.9a4,4,0,0,0,0,5.66L57.83,80.81,39.14,99.51a4,4,0,0,0,0,5.66L54,120.06a4,4,0,0,0,5.66,0l18.69-18.69,18.69,18.69a4,4,0,0,0,5.66,0l14.9-14.9A4,4,0,0,0,117.64,99.51Z"/></g></g></g></svg>