<svg xmlns="http://www.w3.org/2000/svg" viewBox="0 0 156.78 159.78"><defs><style>.cls-1{isolation:isolate;}.cls-2{fill:#9dc0c6;}.cls-3{opacity:0.5;mix-blend-mode:soft-light;}.cls-4{fill:#fff;}</style></defs><title>Fichier 7</title><g class="cls-1"><g id="Calque_2" data-name="Calque 2"><g id="elements"><path d="M143.78,3H13A13,13,0,0,0,0,16V146.78a13,13,0,0,0,13,13H143.78a13,13,0,0,0,13-13V16A13,13,0,0,0,143.78,3Z"/><rect class="cls-2" width="156.78" height="156.78" rx="13" ry="13"/><path class="cls-3" d="M143.78,156.78a13,13,0,0,0,13-13V13a13,13,0,0,0-13-13H78.39V156.78Z"/><path class="cls-4" d="M59.35,45.1V87.59l.21.26a14.46,14.46,0,1,0,11.78,14.2V55.5l27.16-7.41V81.23l.15.17A14.45,14.45,0,1,0,111,95.69V31.52Z"/></g></g></g></svg>