<svg xmlns="http://www.w3.org/2000/svg" viewBox="0 0 167.4 158.84"><defs><style>.cls-1{isolation:isolate;}.Graphic-Style,.cls-6{opacity:0.5;}.cls-2{fill:#e55c3c;}.cls-3{fill:#c1932b;}.cls-4{fill:#dbb14d;}.cls-5{fill:#d7ad49;}.cls-6,.cls-7{mix-blend-mode:soft-light;}.cls-7{opacity:0.7;}</style></defs><title>Fichier 8</title><g class="cls-1"><g id="Calque_2" data-name="Calque 2"><g id="elements"><path class="Graphic-Style" d="M105.9,68.67H153.4l14-24.86L153.4,19H100.33a16.13,16.13,0,0,0-32.26,0H15L0,43.82,15,68.67H68.06v90.17h32.28V110.6h21.15l15-18-15-18H100.34V68.67Z"/><path class="cls-2" d="M100.34,155.84V16.14a16.14,16.14,0,0,0-32.28,0v139.7Z"/><polygon class="cls-3" points="121.49 107.6 94.4 107.6 94.4 71.61 121.49 71.61 136.49 89.61 121.49 107.6"/><polygon class="cls-4" points="153.4 65.67 15 65.67 0 40.81 15 15.96 153.4 15.96 167.4 40.81 153.4 65.67"/><polygon class="cls-3" points="84.2 15.96 84.2 65.67 153.4 65.67 167.4 40.81 153.4 15.96 84.2 15.96"/><path class="cls-5" d="M100.34,155.84V16.14a16.14,16.14,0,0,0-32.28,0v139.7Z"/><path class="cls-6" d="M84.2,0V155.84h16.14V16.14A16.14,16.14,0,0,0,84.2,0Z"/><rect class="cls-7" x="100.34" y="71.61" width="5.56" height="35.99"/><path class="cls-7" d="M105.9,16h-5.57c0,.06,0,.12,0,.18V65.67h5.56V16.14C105.9,16.08,105.9,16,105.9,16Z"/></g></g></g></svg>