<svg xmlns="http://www.w3.org/2000/svg" viewBox="0 0 102.12 159.18"><defs><style>.cls-1{isolation:isolate;}.Graphic-Style,.cls-3{opacity:0.5;}.cls-2{fill:#ffd775;}.cls-3{mix-blend-mode:overlay;}</style></defs><title>Fichier 8</title><g class="cls-1"><g id="Calque_2" data-name="Calque 2"><g id="elements"><path class="Graphic-Style" d="M101.76,4.66A3.12,3.12,0,0,0,99,3H35.92a3.17,3.17,0,0,0-3,2L.22,89.73a3.25,3.25,0,0,0,3,4.42H30L7.91,152.88a4.66,4.66,0,0,0,7.9,4.66L93.62,66.25a4.66,4.66,0,0,0-3.54-7.68H67L101.58,7.88A3.12,3.12,0,0,0,101.76,4.66Z"/><path class="cls-2" d="M35.92,0a3.17,3.17,0,0,0-3,2L.22,86.73a3.25,3.25,0,0,0,3,4.42H30L7.91,149.88a4.66,4.66,0,0,0,7.9,4.66L93.62,63.25a4.66,4.66,0,0,0-3.54-7.68H67L101.58,4.88A3.12,3.12,0,0,0,99,0Z"/><path class="cls-3" d="M7.91,149.88a4.66,4.66,0,0,0,7.9,4.66L93.62,63.25a4.66,4.66,0,0,0-3.54-7.68H67L30,91.15Z"/></g></g></g></svg>