<svg xmlns="http://www.w3.org/2000/svg" viewBox="0 0 110.71 159.31"><defs><style>.Graphic-Style{opacity:0.5;}.cls-1{fill:#f3543e;}.cls-2{fill:#facb3d;}.cls-3{fill:#fdfae9;}</style></defs><title>Fichier 9</title><g id="Calque_2" data-name="Calque 2"><g id="elements"><path class="Graphic-Style" d="M62.37,3S0,44.71,0,105.91c0,47.95,42.88,53.4,58.86,53.4,21.83,0,51.84-17.93,51.84-47.56C110.71,56,50.67,46.27,62.37,3Z"/><path class="cls-1" d="M62.37,0S0,41.71,0,102.91c0,47.95,42.88,53.4,58.86,53.4,21.83,0,51.84-17.93,51.84-47.56C110.71,53,50.67,43.27,62.37,0Z"/><path class="cls-2" d="M58.86,144.93c-3.39,0-15.16-.42-24.41-5.77-5.8-3.35-12.46-9.3-12.46-25.64,0-24.18,13.16-45.34,26.31-60.46C53.57,61.67,60.2,68.92,66,75.23c12.2,13.34,22.73,24.86,22.73,44.14C88.71,135.91,69,144.93,58.86,144.93Z"/><path class="cls-3" d="M59.19,141.47c-15.75,1.2-26.69-8.35-26.69-20.58,0-16.15,6.68-31.18,14.69-43.4,3.2,3.79,6.36,7.25,9.22,10.38C70.62,103.4,79.61,109.54,78,127.43,77.19,136.88,64.81,141.47,59.19,141.47Z"/></g></g></svg>