<svg xmlns="http://www.w3.org/2000/svg" viewBox="0 0 155.78 158.78"><defs><style>.cls-1{fill:#78b9c1;}.cls-2{fill:#869b2c;}.cls-3{fill:#c8c9b7;}</style></defs><title>Fichier 4</title><g id="Calque_2" data-name="Calque 2"><g id="elements"><path d="M155.72,77.89c0-.19,0-.38,0-.58s0-.65-.05-1q-.08-1.45-.22-2.89c0-.24,0-.47-.06-.71q-.18-1.72-.43-3.42c0-.3-.1-.6-.15-.9q-.21-1.32-.47-2.62c-.06-.33-.13-.66-.19-1-.23-1.09-.48-2.17-.75-3.24-.06-.25-.13-.49-.2-.73q-.34-1.28-.72-2.54-.17-.57-.35-1.14-.39-1.22-.82-2.41c-.1-.29-.2-.59-.31-.88-.35-.95-.72-1.88-1.11-2.81-.17-.42-.36-.84-.54-1.26q-.4-.91-.82-1.82c-.2-.42-.39-.85-.59-1.26q-.64-1.3-1.32-2.58c-.25-.47-.51-.92-.77-1.38s-.53-.94-.81-1.41-.59-1-.89-1.48-.53-.83-.8-1.24q-.87-1.34-1.78-2.64l-.68-1-.45-.63.14-.12-2-2.23q-1.94-2.41-4.06-4.65l-.43-.45q-2.58-2.69-5.42-5.13l-.14-.12A77.63,77.63,0,0,0,96.4,5.23h0l-.19,0q-1.9-.46-3.83-.82l-1.32-.24c-.77-.13-1.54-.25-2.32-.36s-1.43-.19-2.15-.27l-1.23-.13q-1.56-.15-3.15-.24l-.79,0-.54,0V3h-6v.06l-.54,0-.79,0q-1.58.09-3.15.24l-1.23.13q-1.08.12-2.15.27c-.77.11-1.54.23-2.31.36l-1.33.24q-1.91.36-3.79.81l-.23.05h0A77.19,77.19,0,0,0,46,9.84h0c-1.94.87-3.84,1.81-5.69,2.83h0Q39.15,13.3,38,14c-.53.32-1.05.65-1.58,1l-1,.65q-2.81,1.83-5.45,3.9l-.37.29A78.3,78.3,0,0,0,19,30l-.49.57q-.64.76-1.27,1.53l-2,2.24.15.13c-1,1.38-2,2.8-2.92,4.24L12,39.3c-.42.66-.83,1.32-1.22,2l-.05.09Q9.49,43.55,8.36,45.8l-.18.35q-.54,1.08-1,2.19l-.22.5q-1.56,3.44-2.78,7L4,56.33A77.61,77.61,0,0,0,.08,77.89H0v6H.06c0,.2,0,.39,0,.59s0,.68.06,1q.08,1.38.21,2.75c0,.3.05.59.08.89q.18,1.74.44,3.45c0,.24.08.48.12.73q.22,1.38.49,2.74.1.53.21,1.05.29,1.39.64,2.76c.05.21.1.43.15.64.28,1.08.59,2.15.91,3.22.1.34.21.67.32,1q.37,1.16.78,2.3c.13.35.25.71.38,1.06.38,1,.77,2,1.19,3,.1.23.2.45.3.68q.52,1.19,1.07,2.37c.18.39.37.77.56,1.15q.48,1,1,1.95c.19.36.37.71.57,1.07q.74,1.34,1.53,2.66c.23.38.47.75.7,1.13q.52.84,1.06,1.66L13.7,125l.35.52-.32.3,2.1,2.14.27.34c.43.56.86,1.11,1.3,1.66s.7.85,1.06,1.26l1,1.21c.38.42.75.85,1.13,1.27s.8.84,1.2,1.26q1,1,2,2l1,1q.68.64,1.38,1.26l1,.86q1.5,1.28,3.06,2.49l.5.39c.53.41,1.08.8,1.62,1.19l1,.68c.55.39,1.11.77,1.67,1.14l.84.54q1.63,1,3.31,2L40,149c.61.34,1.22.66,1.83,1l1,.5a77.32,77.32,0,0,0,16.55,6.11h0l.23.05q1.88.45,3.79.81l1.33.24c.77.13,1.54.25,2.31.36s1.43.19,2.15.27l1.23.13q1.56.15,3.15.24l.79,0,.54,0v.06h6v-.06l.54,0,.79,0q1.58-.09,3.15-.24l1.23-.13q1.08-.12,2.15-.27c.78-.11,1.55-.23,2.32-.36l1.32-.24q1.93-.36,3.83-.82l.19,0h0A77.92,77.92,0,0,0,139.95,128l2.1-2.14-.33-.31a77.45,77.45,0,0,0,14-41.5v-.12h.07v-6Z"/><circle class="cls-1" cx="77.89" cy="77.89" r="77.89"/><path class="cls-2" d="M113.22,8.48c-1.57,4.25-4.64,8.34-10.7,7.5-12-1.66-21.64,4.66-20,9.65s4.33,3.66,7.66,6-2.33-8.48,2-8.07,8.32,5.41,4,8.73-18.31.33-18.31,4-4.58.92-7.66,5.66,21,11,29.29,10.65,11.32-1.66,12.65,2.66,5.33,10.32.33,8.66-4.33-5.21-10-4.77-2,4.77-7.32,3.77-4.66-4.33-9.65-6.32-8.66-7.32-16.31-4.33c0,0-1.33.33-4.33,5.33s-1.33,9.32-6,11-11,11-4,16,6.66,12.32,14.31,10.32,13.31-4,14.31.34,1.33,7.49,4,10.4,1.66,3.25,0,8.9a17.53,17.53,0,0,0,4,16.19c3.66,3.79,2.33,7.78,7.66,2.45s5.3-8.64,11.65-15,6.66-10,7-16.31,2.33-9.32,5.66-16.64,8-18,13.31-16.31,10,3.66,10.32,9-5.33,16-1.66,14.64,1-9.65,6.33-9a16.83,16.83,0,0,0,3.77,0c.13-1.87.23-3.75.23-5.65A77.87,77.87,0,0,0,113.22,8.48Z"/><path class="cls-2" d="M46,6.84c-.67,5.45,1.89,11.1,3.29,14.46,1.82,4.38,8.65-1.66,14-7.32C66.39,10.63,69.78,4.61,72,.24A77.43,77.43,0,0,0,46,6.84Z"/><path class="cls-2" d="M24.1,21.59c.73.37,1.47.78,2.2,1.21C31,25.63,34,22.63,37.95,19.3c1.81-1.5,2.32-5.6,2.34-9.63A78.11,78.11,0,0,0,24.1,21.59Z"/><path class="cls-2" d="M26.3,39.61C25.3,33.29,28,32,30.62,28.29c1.71-2.35-3.86-3.61-8.35-4.91A77.71,77.71,0,0,0,1.83,61.14c4.67,5.79,1.29,8.26,5.5,6.72,4.66-1.71,2.33-5,2.66-11.94s2.66-7.66,9.32-11S27.29,45.93,26.3,39.61Z"/><path class="cls-2" d="M40.29,111.25c3.16-9.73,1.32-7.73-5-8.73S21.64,104.85,22,98.19s-.67-6.32-6.13-10C12.44,85.93,5.1,80.58,0,76.85c0,.35,0,.69,0,1a77.89,77.89,0,0,0,44.72,70.48c1.11-10.39-1.12-7.91-4.43-19.22S37.12,121,40.29,111.25Z"/><path class="cls-3" d="M59.38,2.23c-6.95,4.09-13.29,10.49-18.63,19C31.21,36.4,26,56.53,26,77.89s5.25,41.49,14.79,56.67c5.34,8.5,11.68,14.9,18.63,19a77.9,77.9,0,0,0,37,0c6.95-4.09,13.29-10.49,18.63-19,9.54-15.18,14.79-35.31,14.79-56.67S124.57,36.4,115,21.22c-5.34-8.5-11.68-14.9-18.63-19a77.9,77.9,0,0,0-37,0Zm64.44,75.66c0,41.29-20.61,74.89-45.93,74.89S32,119.19,32,77.89,52.56,3,77.89,3,123.82,36.6,123.82,77.89Z"/><path class="cls-3" d="M77.89,50.1c-26,0-49.42-7-62.66-18.81l4-4.48c12,10.67,34.46,17.29,58.67,17.29s46.68-6.62,58.67-17.29l4,4.48C127.31,43.07,103.89,50.1,77.89,50.1Z"/><path class="cls-3" d="M137.85,127.09c-11.62-11.41-34.6-18.49-60-18.49s-48.33,7.08-60,18.49l-4.2-4.28C26.43,110.35,51,102.6,77.89,102.6s51.46,7.74,64.16,20.21Z"/><rect class="cls-3" y="74.89" width="155.78" height="6"/><rect class="cls-3" x="74.89" width="6" height="155.78"/></g></g></svg>