<svg xmlns="http://www.w3.org/2000/svg" viewBox="0 0 153.97 150.57"><defs><style>.Graphic-Style{opacity:0.5;}.cls-1{fill:#ee5847;}.cls-2{fill:#fff;}.cls-3{opacity:0.2;}.cls-4{fill:#aba79c;}</style></defs><title>Fichier 3</title><g id="Calque_2" data-name="Calque 2"><g id="elements"><path class="Graphic-Style" d="M142,126.57h-10.7l-9-25.33h0L114,77.91h0l-23-65a14.91,14.91,0,0,0-28.1,0L57,29.57h0L55,35.37,39.93,77.91h0l-8.26,23.33h0l-9,25.33H12a12,12,0,0,0,0,24H142a12,12,0,0,0,0-24Z"/><path class="cls-1" d="M133.39,129.57H20.58L62.93,9.93a14.91,14.91,0,0,1,28.1,0Z"/><polygon class="cls-2" points="31.67 98.24 122.3 98.24 114.04 74.91 39.93 74.91 31.67 98.24"/><polygon class="cls-2" points="48.78 49.91 105.19 49.91 96.93 26.57 57.04 26.57 48.78 49.91"/><path class="cls-3" d="M133.39,129.57,91,9.93A14.91,14.91,0,0,0,77,0V129.57Z"/><path class="cls-4" d="M154,135.57a12,12,0,0,1-12,12H12a12,12,0,0,1-12-12H0a12,12,0,0,1,12-12H142a12,12,0,0,1,12,12Z"/></g></g></svg>