<svg xmlns="http://www.w3.org/2000/svg" viewBox="0 0 142.83 110.2"><defs><style>.cls-1{fill:#93b14d;}.cls-2{opacity:0.2;}.cls-3{fill:#aac55a;}.cls-4{fill:#7c9b3d;}</style></defs><title>Fichier 4</title><g id="Calque_2" data-name="Calque 2"><g id="elements"><path d="M28.92,21C-6.5,48.93-.45,74.55,7.71,88.66l-2.09,4.7h0L0,106s9.17-1.13,12.7,4.19c0,0-.57-4.42-.74-9h0c0-.84,0-1.68,0-2.5v-.11q0-.58,0-1.14s0-.08,0-.13c0-.38,0-.74.05-1.1v0c0-.35.05-.68.09-1v-.12c.87,1.1,1.68,2,2.36,2.78,7.76,8.46,49.37,27.51,73-10.58s34.21-58.9,55.37-66.3C142.83,21,80.34-19.51,28.92,21Z"/><path class="cls-1" d="M8.46,84,0,103s9.17-1.13,12.7,4.19c0,0-1.76-13.72,0-17.6Z"/><path class="cls-2" d="M12.7,89.6,8.46,84,5.62,90.35a56.19,56.19,0,0,0,5.42,7c.27.29.57.6.92.91C11.83,94.8,11.93,91.28,12.7,89.6Z"/><path class="cls-3" d="M142.83,18S80.34-22.51,28.92,18C-16.93,54.14,6.7,86.43,14.46,94.89s49.37,27.51,73-10.58S121.67,25.42,142.83,18Z"/><path class="cls-4" d="M132.6,16.6S48.67,2.49,12.7,84C12.7,84,58.54,25.42,132.6,16.6Z"/></g></g></svg>