<svg xmlns="http://www.w3.org/2000/svg" viewBox="0 0 180.41 115.86"><defs><style>.Graphic-Style{opacity:0.5;}.cls-1{fill:#fdfae9;}.cls-2{fill:#c9cabc;}.cls-3{fill:#9abbc4;}</style></defs><title>Fichier 8</title><g id="Calque_2" data-name="Calque 2"><g id="Layer_1" data-name="Layer 1"><path class="Graphic-Style" d="M180.08,72.42a38.88,38.88,0,0,0,.33-5A38.45,38.45,0,0,0,142,29a38.9,38.9,0,0,0-4,.2l-.11-.19h0a51.42,51.42,0,0,0-96,21.94l-.13,0h0a28.95,28.95,0,0,0-41.34,31v0a28.94,28.94,0,0,0,28.52,34l62.09-.05c.72,0,1.43.05,2.16.05s1.54,0,2.31-.06l43.83,0c.86.06,1.72.1,2.59.1s1.78,0,2.66-.1h0a38.38,38.38,0,0,0,35.43-43.35Z"/><path class="cls-1" d="M180.41,74.41A38.45,38.45,0,0,0,142,36a38.9,38.9,0,0,0-4,.2l-.11-.19h0a51.42,51.42,0,0,0-96,21.94l-.13,0h0A29,29,0,1,0,29,112.86l62.09-.05c.72,0,1.43.05,2.16.05s1.54,0,2.31-.06l43.83,0c.86.06,1.72.1,2.59.1s1.78,0,2.66-.1h0A38.45,38.45,0,0,0,180.41,74.41Z"/><path class="cls-2" d="M29,54.94a28.82,28.82,0,0,1,12.82,3h0l.13,0a51.42,51.42,0,0,1,96-21.94h0l.11.19a38.9,38.9,0,0,1,4-.2,38.45,38.45,0,0,1,38.12,33.46,38.88,38.88,0,0,0,.33-5A38.45,38.45,0,0,0,142,26a38.9,38.9,0,0,0-4,.2l-.11-.19h0a51.42,51.42,0,0,0-96,21.94l-.13,0h0a28.95,28.95,0,0,0-41.34,31A29,29,0,0,1,29,54.94Z"/><polygon class="cls-3" points="119.72 76.13 92.11 45.43 64.5 76.13 77.82 76.13 77.82 98.87 106.41 98.87 106.41 76.13 119.72 76.13"/></g></g></svg>