<svg xmlns="http://www.w3.org/2000/svg" viewBox="0 0 180.41 115.86"><defs><style>.Graphic-Style{opacity:0.5;}.cls-1{fill:#fdfae9;}.cls-2{fill:#c9cabc;}.cls-3{fill:#8fb44b;}</style></defs><title>Fichier 5</title><g id="Calque_2" data-name="Calque 2"><g id="elements"><path class="Graphic-Style" d="M180.08,72.42a38.88,38.88,0,0,0,.33-5A38.45,38.45,0,0,0,142,29a38.9,38.9,0,0,0-4,.2l-.11-.19h0a51.42,51.42,0,0,0-96,21.94l-.13,0h0A28.95,28.95,0,0,0,.44,81.9v0a28.94,28.94,0,0,0,28.52,34l62.09-.05c.72,0,1.43.05,2.16.05s1.54,0,2.31-.06l43.84,0c.86.06,1.72.1,2.59.1s1.78,0,2.66-.1h0a38.38,38.38,0,0,0,35.43-43.35Zm-11.3-22.55-.31-.3ZM3.9,72.39l0,.06Zm1.36-2.12,0,.07Zm-.69,1-.06.09ZM27.54,58c.47,0,.94,0,1.42,0C28.49,57.94,28,58,27.54,58ZM9.25,65.69l.06-.05Zm.8-.71.25-.21ZM11,64.2l.33-.26Zm1-.77.39-.28Zm1.06-.73.44-.28Zm1.1-.69.49-.28Zm1.14-.65.55-.28Zm1.18-.6q.57-.27,1.16-.52Q17.05,60.49,16.48,60.77ZM18.16,60l.73-.29Zm1.3-.49.72-.24Zm1.29-.42.73-.21Zm1.32-.36.75-.17Zm1.34-.29.79-.14Zm1.36-.23.83-.11Zm1.38-.17.93-.07ZM143.86,39c-.63,0-1.27,0-1.9,0C142.59,39,143.23,39,143.86,39Zm.63,0,1.25.1Zm23,9.64-.34-.29Zm-1.33-1.13-.33-.26Zm-1.38-1.07-.18-.13ZM161,44l-.56-.32Zm-1.43-.78-.73-.37ZM158,42.46l-.8-.36Zm-1.63-.7-.86-.34Zm-1.68-.63-.9-.31ZM153,40.56,152,40.3Zm-1.76-.48-1-.23Zm-1.79-.4-1-.19Zm-1.82-.31-1.11-.14Zm32.22,31.29h0ZM169.7,50.8l.28.29Zm1.19,1.3.23.26ZM172,53.45l.17.21Zm1.07,1.41.08.11Z"/><path class="cls-1" d="M180.41,74.41A38.45,38.45,0,0,0,142,36a38.9,38.9,0,0,0-4,.2l-.11-.19h0a51.42,51.42,0,0,0-96,21.94l-.13,0h0A29,29,0,1,0,29,112.86l62.09-.05c.72,0,1.43.05,2.16.05s1.54,0,2.31-.06l43.84,0c.86.06,1.72.1,2.59.1s1.78,0,2.66-.1h0A38.45,38.45,0,0,0,180.41,74.41Z"/><path class="cls-2" d="M29,54.94a28.84,28.84,0,0,1,12.82,3h0l.13,0a51.42,51.42,0,0,1,96-21.94h0l.11.19a38.9,38.9,0,0,1,4-.2,38.45,38.45,0,0,1,38.12,33.46,38.88,38.88,0,0,0,.33-5A38.45,38.45,0,0,0,142,26a38.9,38.9,0,0,0-4,.2l-.11-.19h0a51.42,51.42,0,0,0-96,21.94l-.13,0h0A28.95,28.95,0,0,0,.44,78.9,29,29,0,0,1,29,54.94Z"/><polygon class="cls-3" points="64.5 68.16 92.11 98.87 119.72 68.16 106.4 68.16 106.4 45.43 77.82 45.43 77.82 68.16 64.5 68.16"/></g></g></svg>