<svg xmlns="http://www.w3.org/2000/svg" viewBox="0 0 193.45 114.52"><defs><style>.Graphic-Style,.cls-4{opacity:0.5;}.cls-1{fill:#fffae6;}.cls-2{fill:#8da9b4;}.cls-3{fill:#473d45;}.cls-4{fill:#fff;}.cls-5{fill:#9dc0c6;}</style></defs><title>Fichier 6</title><g id="Calque_2" data-name="Calque 2"><g id="elements"><path class="Graphic-Style" d="M96.72,3.77C57.78,3.77,23,25.33,0,59.14,23,93,57.78,114.52,96.72,114.52S170.46,93,193.45,59.14C170.46,25.33,135.67,3.77,96.72,3.77Z"/><path class="cls-1" d="M96.72,0C57.78,0,23,21.56,0,55.38c23,33.82,57.78,55.38,96.72,55.38s73.74-21.56,96.72-55.37C170.46,21.56,135.67,0,96.72,0Z"/><circle class="cls-2" cx="96.72" cy="55.37" r="47.59"/><circle class="cls-3" cx="96.72" cy="55.37" r="21.57"/><circle class="cls-4" cx="79.63" cy="35.71" r="17.09"/><path class="cls-5" d="M96.72,10.85a44.53,44.53,0,1,0,44.53,44.53A44.53,44.53,0,0,0,96.72,10.85Zm0,86.19a41.66,41.66,0,1,1,41.66-41.66A41.66,41.66,0,0,1,96.72,97Z"/></g></g></svg>