<svg xmlns="http://www.w3.org/2000/svg" viewBox="0 0 155.75 142.75"><defs><style>.Graphic-Style{opacity:0.5;}.cls-1{fill:#9b7220;}.cls-2{fill:#ce9f35;}.cls-3{fill:#967621;}.cls-4{fill:#d3cabb;}.cls-5{fill:#aaa9a7;}.cls-6{fill:#a0771d;}.cls-7{opacity:0.2;}</style></defs><title>Fichier 2</title><g id="Calque_2" data-name="Calque 2"><g id="elements"><path class="Graphic-Style" d="M142.75,27.5h-32.5v-.62A23.88,23.88,0,0,0,86.37,3H69.87A23.88,23.88,0,0,0,46,26.88v.63H13a13,13,0,0,0-13,13v89.25a13,13,0,0,0,13,13H142.75a13,13,0,0,0,13-13V40.5A13,13,0,0,0,142.75,27.5ZM57,26.88A12.89,12.89,0,0,1,69.87,14h16.5A12.89,12.89,0,0,1,99.25,26.88v.63H57Z"/><rect class="cls-1" y="24.5" width="155.75" height="115.25" rx="13" ry="13"/><path class="cls-2" d="M142.75,24.5H13a13,13,0,0,0-13,13v63.19H155.75V37.5A13,13,0,0,0,142.75,24.5Z"/><rect class="cls-3" x="21.64" y="24.5" width="23.11" height="70.81"/><rect class="cls-4" x="14.52" y="90.56" width="37.35" height="10.13"/><path class="cls-5" d="M22,100.69V110a10,10,0,0,0,10,10h2.47a10,10,0,0,0,10-10v-9.31Z"/><rect class="cls-3" x="111.77" y="24.5" width="23.11" height="70.81"/><rect class="cls-4" x="104.65" y="90.56" width="37.35" height="10.13"/><path class="cls-5" d="M112.09,100.69V110a10,10,0,0,0,10,10h2.47a10,10,0,0,0,10-10v-9.31Z"/><path class="cls-6" d="M57,24.5v-.62A12.89,12.89,0,0,1,69.87,11h16.5A12.89,12.89,0,0,1,99.25,23.88v.63h11v-.62A23.88,23.88,0,0,0,86.37,0H69.87A23.88,23.88,0,0,0,46,23.88v.63Z"/><rect class="cls-7" y="100.69" width="155.75" height="4.31"/></g></g></svg>