<svg xmlns="http://www.w3.org/2000/svg" viewBox="0 0 134.4 200.36"><defs><style>.cls-1{opacity:0.5;}.cls-2{fill:#a8867a;}.cls-3{fill:#cec5bc;}.cls-4{stroke:#231f20;stroke-miterlimit:10;stroke-width:1.26px;}.cls-4,.cls-6{opacity:0.2;}.cls-5{fill:#a7a8a0;}.cls-7{fill:#cecabf;}</style></defs><title>Fichier 4</title><g id="Calque_2" data-name="Calque 2"><g id="elements"><g class="cls-1"><path d="M18.4,91.24v41.1a15.08,15.08,0,0,0,15.08,15.07h67.45A15.07,15.07,0,0,0,116,132.34V85.95h6V65.23h-6V18.84A15.07,15.07,0,0,0,100.93,3.77H33.47A15.08,15.08,0,0,0,18.4,18.84V65.23h-6V85.95h6Z"/><path d="M129.37,75.59v71.94a12.58,12.58,0,0,1-12.56,12.56H17.59A12.58,12.58,0,0,1,5,147.53V75.59H0v71.94a17.61,17.61,0,0,0,17.59,17.59H55.46v23.79H22.08v11.45h90.24V188.91H78.94V165.12h37.87a17.61,17.61,0,0,0,17.59-17.59V75.59Z"/></g><path class="cls-2" d="M33.47,0h67.45A15.08,15.08,0,0,1,116,15.08V128.57a15.08,15.08,0,0,1-15.08,15.08H33.47A15.07,15.07,0,0,1,18.4,128.57V15.08A15.08,15.08,0,0,1,33.47,0Z"/><rect class="cls-3" x="12.41" y="61.46" width="109.57" height="20.72"/><rect class="cls-4" x="18.4" y="82.18" width="97.6" height="5.29"/><polygon class="cls-5" points="78.94 185.15 78.94 156.32 55.46 156.32 55.46 185.15 22.08 185.15 22.08 196.59 112.32 196.59 112.32 185.15 78.94 185.15"/><rect class="cls-6" x="55.46" y="161.35" width="23.48" height="5.31"/><path class="cls-7" d="M116.81,161.35H17.59A17.61,17.61,0,0,1,0,143.76V71.82H5v71.94a12.58,12.58,0,0,0,12.56,12.56h99.22a12.58,12.58,0,0,0,12.56-12.56V71.82h5v71.94A17.61,17.61,0,0,1,116.81,161.35Z"/></g></g></svg>