<svg xmlns="http://www.w3.org/2000/svg" viewBox="0 0 191.58 197.86"><defs><style>.Graphic-Style{opacity:0.5;}.cls-1{fill:#a8a89e;}.cls-2{fill:#cccabd;}.cls-3{fill:#86837e;}.cls-4{fill:#b1ada4;}.cls-5{opacity:0.2;}.cls-6{fill:#aca9a0;}.cls-7{fill:#c8c6b7;}.cls-8{fill:#86837c;}.cls-9{fill:#807d74;}</style></defs><title>Fichier 5</title><g id="Calque_2" data-name="Calque 2"><g id="elements"><path class="Graphic-Style" d="M176.5,3.77H15.08A15.08,15.08,0,0,0,0,18.84V169.17a15.07,15.07,0,0,0,15.08,15.07v13.61H45.22V184.25H146.35v13.61H176.5V184.25a15.07,15.07,0,0,0,15.07-15.07V18.84A15.07,15.07,0,0,0,176.5,3.77Z"/><rect class="cls-1" width="191.58" height="180.48" rx="15.07" ry="15.07"/><rect class="cls-2" x="23.55" y="22.61" width="144.47" height="134.42"/><rect class="cls-3" x="23.55" y="157.03" width="144.47" height="6.91"/><rect class="cls-4" x="15.08" y="180.48" width="30.15" height="13.61"/><rect class="cls-5" x="15.08" y="180.48" width="30.15" height="6.8"/><rect class="cls-4" x="146.35" y="180.48" width="30.15" height="13.61"/><rect class="cls-5" x="146.35" y="180.48" width="30.15" height="6.8"/><circle class="cls-6" cx="95.79" cy="88.1" r="43.03"/><path class="cls-7" d="M114.95,91.45a19.16,19.16,0,0,1-38.31,0c0-10.58,19.16-29.27,19.16-29.27S114.95,80.87,114.95,91.45Z"/><path class="cls-8" d="M95.79,110.61a19.15,19.15,0,0,1-19-16.95,10.37,10.37,0,0,0-.14,1.56,19.16,19.16,0,1,0,38.31,0,10.38,10.38,0,0,0-.14-1.56A19.15,19.15,0,0,1,95.79,110.61Z"/><circle class="cls-9" cx="95.79" cy="51.52" r="4.13"/><circle class="cls-9" cx="69.92" cy="62.24" r="4.13" transform="translate(-23.53 67.67) rotate(-45)"/><circle class="cls-9" cx="59.21" cy="88.1" r="4.13"/><circle class="cls-9" cx="69.92" cy="113.97" r="4.13" transform="translate(-60.12 82.85) rotate(-45.01)"/><circle class="cls-9" cx="95.79" cy="124.68" r="4.13"/><circle class="cls-9" cx="121.65" cy="113.97" r="4.13" transform="translate(-44.96 119.43) rotate(-45.01)"/><path class="cls-9" d="M132.37,92.23a4.13,4.13,0,1,1,4.13-4.13A4.13,4.13,0,0,1,132.37,92.23Z"/><circle class="cls-9" cx="121.65" cy="62.24" r="4.13" transform="translate(-8.36 104.29) rotate(-45.02)"/></g></g></svg>