<svg xmlns="http://www.w3.org/2000/svg" viewBox="0 0 158.62 161.62"><defs><style>.cls-1{fill:#bd4739;}.cls-2{fill:#ea5944;}</style></defs><title>Fichier 5</title><g id="Calque_2" data-name="Calque 2"><g id="elements"><path d="M155.34,90.83,81.5,17A47.74,47.74,0,1,0,14,84.5l73.85,73.85a11.2,11.2,0,0,0,15.84,0l51.68-51.68A11.2,11.2,0,0,0,155.34,90.83ZM27.12,30.12a10.84,10.84,0,1,1,0,15.33A10.84,10.84,0,0,1,27.12,30.12Z"/><path class="cls-1" d="M14,14A47.74,47.74,0,0,0,14,81.5l73.85,73.85a11.2,11.2,0,0,0,15.84,0l51.68-51.68a11.2,11.2,0,0,0,0-15.84L81.5,14A47.74,47.74,0,0,0,14,14ZM42.45,42.45a10.84,10.84,0,1,1,0-15.33A10.84,10.84,0,0,1,42.45,42.45Z"/><rect class="cls-2" x="51.78" y="39.36" width="68.9" height="93.73" rx="2.46" ry="2.46" transform="translate(-35.72 86.23) rotate(-45)"/></g></g></svg>