<svg xmlns="http://www.w3.org/2000/svg" viewBox="0 0 156.78 159.78"><defs><style>.cls-1{isolation:isolate;}.Graphic-Style,.cls-3{opacity:0.5;}.cls-2{fill:#c9c7ba;}.cls-3{mix-blend-mode:soft-light;}.cls-4{fill:#d95141;}.cls-5{opacity:0.2;}.cls-6{fill:#fff;}.cls-7{fill:#8fb141;}</style></defs><title>Fichier 3</title><g class="cls-1"><g id="Calque_2" data-name="Calque 2"><g id="elements"><path class="Graphic-Style" d="M143.78,3H13A13,13,0,0,0,0,16V146.78a13,13,0,0,0,13,13H143.78a13,13,0,0,0,13-13V16A13,13,0,0,0,143.78,3Z"/><rect class="cls-2" width="156.78" height="156.78" rx="13" ry="13"/><path class="cls-3" d="M0,143.78a13,13,0,0,0,13,13H143.78a13,13,0,0,0,13-13V78.39H0Z"/><path class="cls-4" d="M114.84,15.71H39.52a25.13,25.13,0,1,0,0,50.25h75.32a25.13,25.13,0,0,0,0-50.25Z"/><path class="cls-5" d="M39.52,19.71h75.32a25.12,25.12,0,0,1,25,23.13c.05-.66.09-1.33.09-2a25.12,25.12,0,0,0-25.12-25.13H39.52A25.13,25.13,0,0,0,14.39,40.83c0,.67,0,1.34.09,2A25.12,25.12,0,0,1,39.52,19.71Z"/><circle class="cls-6" cx="39.52" cy="40.83" r="25.13"/><path class="cls-7" d="M39.52,91.22h75.32a25.13,25.13,0,0,1,0,50.25H39.52a25.13,25.13,0,1,1,0-50.25Z"/><path class="cls-5" d="M114.84,95.22H39.52a25.12,25.12,0,0,0-25,23.13c-.05-.66-.09-1.33-.09-2A25.13,25.13,0,0,1,39.52,91.22h75.32A25.12,25.12,0,0,1,140,116.34c0,.67,0,1.34-.09,2A25.12,25.12,0,0,0,114.84,95.22Z"/><circle class="cls-6" cx="114.84" cy="116.34" r="25.13"/></g></g></g></svg>