<svg xmlns="http://www.w3.org/2000/svg" viewBox="0 0 156.78 159.78"><defs><style>.cls-1{isolation:isolate;}.cls-2,.cls-5{fill-rule:evenodd;}.Graphic-Style,.cls-4{opacity:0.5;}.cls-3{fill:#787087;}.cls-4{mix-blend-mode:soft-light;}.cls-5{fill:#fff;}</style></defs><title>Fichier 2</title><g class="cls-1"><g id="Calque_2" data-name="Calque 2"><g id="elements"><path class="cls-2" d="M143.78,0H13A13,13,0,0,0,0,13V143.78a13,13,0,0,0,13,13H143.78a13,13,0,0,0,13-13V13A13,13,0,0,0,143.78,0Z"/><path class="Graphic-Style" d="M143.78,3H13A13,13,0,0,0,0,16V146.78a13,13,0,0,0,13,13H143.78a13,13,0,0,0,13-13V16A13,13,0,0,0,143.78,3Z"/><rect class="cls-3" width="156.78" height="156.78" rx="13" ry="13"/><path class="cls-4" d="M143.78,156.78a13,13,0,0,0,13-13V13a13,13,0,0,0-13-13H78.39V156.78Z"/><path class="cls-5" d="M81.79,72.78,87,78l7.33,7.31L104.07,95a13.8,13.8,0,1,1-19.53,19.51l-9.77-9.75-7.32-7.32-5.19-5.18A27.43,27.43,0,0,1,28.57,58.65l16.9,16.88C47.9,78,62.56,78,65,75.52S67.44,58.45,65,56L48.1,39.14A27.43,27.43,0,0,1,81.79,72.78Zm7.63,27.13a6.9,6.9,0,1,0,9.76,0A6.89,6.89,0,0,0,89.42,99.91Z"/></g></g></g></svg>