<svg xmlns="http://www.w3.org/2000/svg" viewBox="0 0 162.81 165.81"><defs><style>.cls-1{opacity:0.5;}.cls-2{fill:#b8b6a9;}</style></defs><title>Fichier 10</title><g id="Calque_2" data-name="Calque 2"><g id="elements"><path class="cls-1" d="M162.81,100.83v-32H135.24a55.67,55.67,0,0,0-4.33-10.75l19.67-19.67L128,15.86,108.53,35.32a55.76,55.76,0,0,0-10.7-4.56V3H65.88V30.47a55.72,55.72,0,0,0-10.82,4.36L35.46,15.23,12.86,37.82,32.27,57.23A55.78,55.78,0,0,0,27.71,68H0V99.93H27.48a55.62,55.62,0,0,0,4.38,10.8L12.23,130.35l22.59,22.59,19.46-19.46A55.77,55.77,0,0,0,65,138v27.79H96.93V138.24a55.6,55.6,0,0,0,10.74-4.35l19.68,19.68L149.95,131l-19.5-19.5A55.62,55.62,0,0,0,135,100.83ZM107.48,84.37A26.13,26.13,0,1,1,81.35,58.25,26.13,26.13,0,0,1,107.48,84.37Z"/><path class="cls-2" d="M162.81,97.83v-32H135.24a55.67,55.67,0,0,0-4.33-10.75l19.67-19.67L128,12.86,108.53,32.32a55.76,55.76,0,0,0-10.7-4.56V0H65.88V27.47a55.72,55.72,0,0,0-10.82,4.36L35.46,12.23,12.86,34.82,32.27,54.23A55.78,55.78,0,0,0,27.71,65H0V96.93H27.48a55.62,55.62,0,0,0,4.38,10.8L12.23,127.35l22.59,22.59,19.46-19.46A55.77,55.77,0,0,0,65,135v27.79H96.93V135.24a55.6,55.6,0,0,0,10.74-4.35l19.68,19.68L149.95,128l-19.5-19.5A55.62,55.62,0,0,0,135,97.83ZM107.48,81.37A26.13,26.13,0,1,1,81.35,55.25,26.13,26.13,0,0,1,107.48,81.37Z"/></g></g></svg>