<svg xmlns="http://www.w3.org/2000/svg" viewBox="0 0 179.59 156.18"><defs><style>.cls-1{opacity:0.5;}.cls-2{fill:#9dbfc8;}.cls-3{fill:#80a1a8;}.cls-4{fill:#fdfae9;}.cls-5{opacity:0.2;}</style></defs><title>Fichier 9</title><g id="Calque_2" data-name="Calque 2"><g id="elements"><path class="cls-1" d="M179.53,95.55c0-.7.07-1.4.07-2.1,0-14.4-8.27-27.23-21.18-35.61C152.81,26.82,119.68,3,79.63,3,35.65,3,0,31.72,0,67.16c0,1,0,2,.09,2.94,0,0,0,0,0,.06h0c1.26,22.09,16.37,41.26,38.51,52v26.66a6.4,6.4,0,0,0,11,4.42l21.25-22.3c2.87.25,5.78.39,8.73.39a99.28,99.28,0,0,0,10.47-.57,66.15,66.15,0,0,0,32.77,8.41c2.1,0,4.18-.1,6.22-.28l15.14,15.89a4.56,4.56,0,0,0,7.86-3.15v-19c15.77-7.65,26.54-21.31,27.44-37h0S179.53,95.56,179.53,95.55Z"/><path class="cls-2" d="M79.63,0C35.65,0,0,28.72,0,64.16c0,23.34,15.48,43.77,38.61,55v26.66a6.4,6.4,0,0,0,11,4.42l21.25-22.3c2.87.25,5.78.39,8.73.39,44,0,79.63-28.72,79.63-64.16S123.61,0,79.63,0Z"/><path class="cls-3" d="M79.63,6c42.73,0,77.59,27.12,79.54,61.16.06-1,.09-2,.09-3C159.26,28.72,123.61,0,79.63,0S0,28.72,0,64.16c0,1,0,2,.09,3C2,33.12,36.9,6,79.63,6Z"/><path class="cls-4" d="M122.87,44.74c31.33,0,56.73,20.46,56.73,45.7,0,16.63-11,31.18-27.5,39.18v19a4.56,4.56,0,0,1-7.86,3.15l-15.14-15.89c-2,.18-4.12.28-6.22.28-31.33,0-56.73-20.46-56.73-45.71S91.54,44.74,122.87,44.74Z"/><path class="cls-5" d="M122.87,49C92.43,49,67.6,68.34,66.21,92.58c0-.71-.07-1.42-.07-2.14,0-25.24,25.4-45.7,56.73-45.7s56.73,20.46,56.73,45.7c0,.72,0,1.43-.07,2.14C178.14,68.34,153.31,49,122.87,49Z"/></g></g></svg>