<svg xmlns="http://www.w3.org/2000/svg" viewBox="0 0 182.18 166.61"><defs><style>.Graphic-Style{opacity:0.5;}.cls-1{fill:#c9c6b7;}.cls-2{fill:#f9faec;}.cls-3{fill:#9ebfc8;}.cls-4{fill:#f1f0ee;}.cls-5{fill:#ffcb2c;}.cls-6{fill:#739137;}.cls-7{fill:#8fb141;}</style></defs><title>Fichier 12</title><g id="Calque_2" data-name="Calque 2"><g id="elements"><path class="Graphic-Style" d="M177,54.88V34.39a14,14,0,0,0-14-14H94.77L55.1,4.06a14,14,0,0,0-18.28,7.61l-3.64,8.84A14,14,0,0,0,20.92,34.39v15.9L1.06,98.51a14,14,0,0,0,7.61,18.28l12.25,5v6.48a14,14,0,0,0,14,14H70.64l56.43,23.24a14,14,0,0,0,18.28-7.61l6.44-15.63H163a14,14,0,0,0,14-14V81.17l4.15-10.07A14,14,0,0,0,177,54.88Z"/><path class="cls-1" d="M145.35,154.94a14,14,0,0,1-18.28,7.61L8.67,113.79A14,14,0,0,1,1.06,95.51L36.83,8.67A14,14,0,0,1,55.1,1.06L173.5,49.82a14,14,0,0,1,7.61,18.28Z"/><rect class="cls-2" x="20.92" y="17.39" width="156.05" height="121.92" rx="14" ry="14"/><rect class="cls-3" x="36.16" y="32.63" width="125.57" height="91.44"/><path class="cls-4" d="M143.1,54.52c-.66-4-3.62-7.05-7.18-7.05a6.19,6.19,0,0,0-1.81.28c-1.47-5.12-5.56-8.82-10.38-8.82s-9.11,3.86-10.49,9.18a13.69,13.69,0,0,0-4.14-.64c-5.31,0-9.8,3-11.27,7.05Z"/><circle class="cls-5" cx="59.69" cy="50.15" r="10.73"/><path class="cls-6" d="M38.44,124.07H98.9c-.83-20.27-14-36.37-30.23-36.37S39.27,103.81,38.44,124.07Z"/><path class="cls-7" d="M124.14,65.76c-19.3,0-34.95,25.47-34.95,56.89,0,.48,0,.95,0,1.42h69.85c0-.47,0-.95,0-1.42C159.09,91.23,143.44,65.76,124.14,65.76Z"/></g></g></svg>