<svg xmlns="http://www.w3.org/2000/svg" viewBox="0 0 156.78 159.78"><defs><style>.cls-1{isolation:isolate;}.Graphic-Style,.cls-3{opacity:0.5;}.cls-2{fill:#b8d762;}.cls-3{mix-blend-mode:soft-light;}.cls-4{fill:#fff;fill-rule:evenodd;}</style></defs><title>Fichier 1</title><g class="cls-1"><g id="Calque_2" data-name="Calque 2"><g id="elements"><path class="Graphic-Style" d="M143.78,3H13A13,13,0,0,0,0,16V146.78a13,13,0,0,0,13,13H143.78a13,13,0,0,0,13-13V16A13,13,0,0,0,143.78,3Z"/><rect class="cls-2" width="156.78" height="156.78" rx="13" ry="13"/><path class="cls-3" d="M143.78,156.78a13,13,0,0,0,13-13V13a13,13,0,0,0-13-13H78.39V156.78Z"/><path class="cls-4" d="M66.56,54.11,62,59.73,42.77,38.12,41,39.72,47,32.2c3.34-4.15,6.39-1.05,10.54,2.29C57.56,34.49,71.67,47.75,66.56,54.11Zm-6,7.52c-6.68,8.31-1,17.74,13.49,29.43s25,15.18,31.64,6.87l-1.18,2.1,25.23,14.19-1.49,1.86-3,3.76c-11.69,14.54-35.32,2.55-60.25-17.49s-41.69-40.56-30-55.1l3-3.76,1.49-1.85L58.71,63.24Zm71.9,48.58L107.17,96l4.52-5.61C117.62,83,132.77,95,132.77,95c4.16,3.34,7.84,5.66,4.5,9.81l-6.05,7.52Z"/></g></g></g></svg>