<svg xmlns="http://www.w3.org/2000/svg" viewBox="0 0 155.74 158.74"><defs><style>.cls-1{isolation:isolate;}.cls-2{fill:#e26e55;}.cls-3{opacity:0.5;mix-blend-mode:soft-light;}.cls-4{fill:#fff;fill-rule:evenodd;}</style></defs><title>Fichier 3</title><g class="cls-1"><g id="Calque_2" data-name="Calque 2"><g id="elements"><circle cx="77.87" cy="80.87" r="77.87"/><circle class="cls-2" cx="77.87" cy="77.87" r="77.87"/><path class="cls-3" d="M155.74,77.87A77.87,77.87,0,0,0,77.87,0V155.74A77.87,77.87,0,0,0,155.74,77.87Z"/><path class="cls-4" d="M112.4,115.12A48.84,48.84,0,1,1,43.33,46l3.84-3.84a5.43,5.43,0,0,1,7.67,7.68L51,53.72a38,38,0,1,0,53.72,0l-3.84-3.84a5.43,5.43,0,0,1,7.68-7.68L112.4,46A48.84,48.84,0,0,1,112.4,115.12ZM77.87,69.73a5.43,5.43,0,0,1-5.43-5.43V31.74a5.43,5.43,0,0,1,10.86,0V64.3A5.43,5.43,0,0,1,77.87,69.73Z"/></g></g></g></svg>