<svg xmlns="http://www.w3.org/2000/svg" viewBox="0 0 158.78 160.24"><defs><style>.cls-1{isolation:isolate;}.cls-2,.cls-5{opacity:0.5;}.cls-3,.cls-6{font-size:99.96px;font-family:Impact, Impact;}.cls-4{fill:#ffd775;}.cls-5{mix-blend-mode:soft-light;}.cls-6{fill:#231f20;}</style></defs><title>Fichier 4</title><g class="cls-1"><g id="Calque_2" data-name="Calque 2"><g id="elements"><g class="cls-2"><text class="cls-3" transform="translate(65.89 127.2)">!</text></g><path class="cls-2" d="M157.91,134.16a13.33,13.33,0,0,0-.72-1.58L91.07,10a13.27,13.27,0,0,0-23.35,0L1.59,132.58a13.27,13.27,0,0,0,11.68,19.56H145.51a13.27,13.27,0,0,0,12.4-18Z"/><path class="cls-4" d="M157.19,129.58a13.27,13.27,0,0,1-11.68,19.56H13.27A13.27,13.27,0,0,1,1.59,129.58L67.71,7A13.27,13.27,0,0,1,91.06,7Z"/><path class="cls-5" d="M145.51,149.14a13.27,13.27,0,0,0,11.68-19.56L91.06,7A13.26,13.26,0,0,0,79.39,0V149.14Z"/><text class="cls-6" transform="translate(65.89 124.2)">!</text></g></g></g></svg>