<svg xmlns="http://www.w3.org/2000/svg" viewBox="0 0 155.74 158.74"><defs><style>.cls-1{opacity:0.2;}.cls-2{fill:#ff5e4a;}.cls-3{fill:#fcffee;}.cls-4{fill:#fffaed;}</style></defs><title>Fichier 5</title><g id="Calque_2" data-name="Calque 2"><g id="elements"><circle class="cls-1" cx="77.87" cy="80.87" r="77.87"/><circle class="cls-2" cx="77.87" cy="77.87" r="77.87"/><path class="cls-3" d="M77.87,23.26a54.61,54.61,0,1,0,54.61,54.61A54.61,54.61,0,0,0,77.87,23.26Zm0,99.23a44.63,44.63,0,1,1,44.63-44.63A44.63,44.63,0,0,1,77.87,122.49Z"/><path class="cls-4" d="M77.87,55.26a22.61,22.61,0,1,0,22.61,22.61A22.61,22.61,0,0,0,77.87,55.26Zm0,36.78A14.17,14.17,0,1,1,92,77.87,14.18,14.18,0,0,1,77.87,92Z"/><path class="cls-1" d="M155.74,77.87A77.87,77.87,0,0,0,77.87,0V155.74A77.87,77.87,0,0,0,155.74,77.87Z"/></g></g></svg>