<svg xmlns="http://www.w3.org/2000/svg" viewBox="0 0 157.27 160.27"><defs><style>.Graphic-Style{opacity:0.5;}.cls-1{fill:#cccabd;}.cls-2{fill:#e9e2d8;}.cls-3{fill:#a9a59a;}.cls-4{fill:#f95b3e;}.cls-5{fill:#49414e;}.cls-6{fill:#fff;opacity:0.6;}</style></defs><title>Fichier 2</title><g id="Calque_2" data-name="Calque 2"><g id="elements"><circle class="Graphic-Style" cx="78.64" cy="81.64" r="78.64"/><circle class="cls-1" cx="78.64" cy="78.64" r="78.64"/><circle class="cls-2" cx="78.64" cy="78.64" r="61.57"/><path class="cls-3" d="M78.64,27.07A61.56,61.56,0,0,1,140,83.64c.13-1.65.22-3.32.22-5a61.57,61.57,0,1,0-123.14,0c0,1.68.09,3.35.22,5A61.56,61.56,0,0,1,78.64,27.07Z"/><rect class="cls-4" x="93.65" y="75.59" width="2.24" height="45.11" transform="translate(-41.44 90.38) rotate(-42.74)"/><path class="cls-5" d="M133.29,74.37H87.62a10,10,0,0,0-4.72-4.72V33.73H74.37V69.65A10,10,0,1,0,87.62,82.9h45.67Z"/><circle class="cls-4" cx="64.22" cy="62.98" r="5.7"/><circle class="cls-6" cx="51.41" cy="51.77" r="12.81"/></g></g></svg>