<svg xmlns="http://www.w3.org/2000/svg" viewBox="0 0 139.93 152.66"><defs><style>.Graphic-Style{opacity:0.5;}.cls-1{fill:#47414d;}.cls-2{fill:#ca9d36;}.cls-3{fill:#a37925;}.cls-4{fill:#f0db6e;}.cls-5{fill:#f85647;}.cls-6{fill:#fff;opacity:0.2;}</style></defs><title>Fichier 1</title><g id="Calque_2" data-name="Calque 2"><g id="elements"><path class="Graphic-Style" d="M139.93,30.3A103.29,103.29,0,0,0,0,30.3H0L13.48,53.88l.37.65h0L70,152.66Z"/><path class="cls-1" d="M70,0A102.93,102.93,0,0,0,0,27.3H0L70,149.66l70-122.36A102.93,102.93,0,0,0,70,0Z"/><path class="cls-2" d="M70,0A102.93,102.93,0,0,0,0,27.3H0L70,149.66l70-122.36A102.93,102.93,0,0,0,70,0Z"/><path class="cls-3" d="M13.85,51.54a111.11,111.11,0,0,1,55.43-14.4,110.91,110.91,0,0,1,56.45,15l2.6-4.55a117.79,117.79,0,0,0-59-15.43A118,118,0,0,0,11.25,47Z"/><path class="cls-4" d="M69.28,37.13A111.76,111.76,0,0,0,17.36,49.61l52.6,92,52.28-91.44A111.58,111.58,0,0,0,69.28,37.13Z"/><circle class="cls-5" cx="52.37" cy="61.69" r="13.14"/><circle class="cls-5" cx="87.58" cy="63.28" r="8.95"/><circle class="cls-5" cx="67.99" cy="96.39" r="10.64"/><circle class="cls-6" cx="47.74" cy="59.66" r="6.23"/></g></g></svg>