<svg xmlns="http://www.w3.org/2000/svg" viewBox="0 0 110.5 185.69"><defs><style>.cls-1{opacity:0.5;}.cls-2{fill:#fff;}.cls-3{opacity:0.2;}.cls-4{fill:#fdfae9;}.cls-5{fill:#ec5947;}</style></defs><title>Fichier 3</title><g id="Calque_2" data-name="Calque 2"><g id="elements"><path class="cls-1" d="M67,142.12v-7.43a55.26,55.26,0,0,0,43.47-54c0-14.63-5.69-47.11-15-76.95H15C5.69,33.61,0,66.08,0,80.72a55.26,55.26,0,0,0,43.47,54v31.46L13,185.69H97.54L67,166.15Z"/><polygon class="cls-2" points="97.53 181.92 67.03 162.38 67.03 125.5 43.47 125.5 43.47 162.38 12.96 181.92 97.53 181.92"/><path class="cls-3" d="M43.47,138.36a61.34,61.34,0,0,0,23.56,0V125.5H43.47Z"/><path class="cls-4" d="M15,0C5.69,29.84,0,62.32,0,76.95a55.25,55.25,0,0,0,110.5,0c0-14.63-5.69-47.11-15-76.95Z"/><path class="cls-5" d="M17.41,66.1a111.15,111.15,0,0,0-1.08,13.36,38.92,38.92,0,0,0,77.84,0A110.89,110.89,0,0,0,93.08,66.1Z"/></g></g></svg>