<svg xmlns="http://www.w3.org/2000/svg" viewBox="0 0 156.79 159.78"><defs><style>.cls-1{isolation:isolate;}.Graphic-Style,.cls-3{opacity:0.5;}.cls-2{fill:#27aae1;}.cls-3{mix-blend-mode:soft-light;}.cls-4{fill:#fff;}</style></defs><title>Fichier 4</title><g class="cls-1"><g id="Calque_2" data-name="Calque 2"><g id="Layer_1" data-name="Layer 1"><path class="Graphic-Style" d="M143.79,3H13A13,13,0,0,0,0,16V146.78a13,13,0,0,0,13,13H143.79a13,13,0,0,0,13-13V16A13,13,0,0,0,143.79,3Z"/><rect class="cls-2" width="156.79" height="156.78" rx="13" ry="13"/><path class="cls-3" d="M143.79,156.78a13,13,0,0,0,13-13V13a13,13,0,0,0-13-13H78.39V156.78Z"/><path class="cls-4" d="M79.54,130.15c-10.3,0-20.13-3.41-24.48-8.48l-1.16-1.37c-2.44-2.91-2.44-2.91-9.25-3.16a9.92,9.92,0,0,1-7.8-4.29C29.63,103,34.1,78.42,35.22,74.31c1.72-6.31,5.65-9.37,12-9.37,1.36,0,2.76.12,4.24.24l1.62.13c2-4,5.73-7.73,9.63-11.65,3.32-3.34,7.09-7.13,8.07-9.7a57,57,0,0,0,1.73-5.7C74,32.59,75.75,26.17,83.28,24a13.51,13.51,0,0,1,3.81-.53c8.86,0,18.73,8,19.92,21.49.75,8.5-1.55,13.37-4.41,17.08a28,28,0,0,1,12,4.57c9.72,6.08,7.49,20.26,4.63,27.74l-3.64,10.3a13.05,13.05,0,0,1-4.16,5.86l-4.82,3.85a10.69,10.69,0,0,0-2.83,3.44l-2,3.85A12.21,12.21,0,0,1,95,127.55,46.81,46.81,0,0,1,79.54,130.15Zm-34.45-23c9.73.36,11.9,1.25,16.48,6.73l1.08,1.28c1.72,2,8.28,5,16.88,5a36.83,36.83,0,0,0,12.15-2A2.24,2.24,0,0,0,92.94,117l2-3.85a20.68,20.68,0,0,1,5.45-6.64l4.82-3.85a3.08,3.08,0,0,0,1-1.38l3.71-10.51c1-2.61,3.83-13-.57-15.73-4.76-3-7.48-3.22-9.86-3.22-1,0-2.07.06-3.2.13-1.35.08-2.88.17-4.58.17h-9.6l5.51-7.87a51.52,51.52,0,0,1,4.6-5.53c3.52-3.82,5.46-5.92,4.84-12.94-.74-8.44-6.38-12.37-10-12.37a3.56,3.56,0,0,0-1,.13c-1.88.55-2.49,2-3.91,7.27a65.46,65.46,0,0,1-2.05,6.68c-1.73,4.55-5.9,8.74-10.32,13.19-3.17,3.2-8,8-8.2,10.25l-.45,4.5H56.65c-2.25,0-4.25-.17-6-.32-1.32-.11-2.46-.21-3.41-.21a3.67,3.67,0,0,0-1.57.18,4.09,4.09,0,0,0-.79,1.82,80.17,80.17,0,0,0-2,17.54C42.8,103.25,44.43,106.57,45.09,107.15Z"/></g></g></g></svg>