<svg xmlns="http://www.w3.org/2000/svg" viewBox="0 0 142.05 144.01"><defs><style>.cls-1{isolation:isolate;}.cls-2{opacity:0.5;mix-blend-mode:soft-light;}.cls-3{fill:#fed676;}.cls-4{fill:#fff;}.cls-5{fill:#e95344;}.cls-6{fill:#cecaaf;}.cls-7{fill:#47414d;}</style></defs><title>Fichier 6</title><g class="cls-1"><g id="Calque_2" data-name="Calque 2"><g id="elements"><polygon class="cls-2" points="142.05 29.38 115.91 3 11.05 106.92 5.01 127.2 5.01 127.2 0 144.01 37.19 133.29 111.17 59.98 116.64 54.55 142.05 29.38"/><rect class="cls-3" x="2.74" y="46.58" width="147.63" height="37.13" transform="translate(-23.68 72.76) rotate(-44.74)"/><polygon class="cls-4" points="37.19 130.29 11.05 103.92 0 141.01 37.19 130.29"/><rect class="cls-5" x="102.64" y="5.46" width="30.79" height="37.13" transform="translate(17.29 90.05) rotate(-44.74)"/><rect class="cls-6" x="96.26" y="20.76" width="12.68" height="37.13" transform="translate(2.04 83.62) rotate(-44.74)"/><polygon class="cls-7" points="16.86 136.15 5.01 124.2 0 141.01 16.86 136.15"/><polygon class="cls-2" points="37.19 130.29 111.17 56.98 120.17 48.05 142.05 26.38 128.98 13.19 0 141.01 37.19 130.29"/></g></g></g></svg>