<svg xmlns="http://www.w3.org/2000/svg" viewBox="0 0 156.55 164"><defs><style>.Graphic-Style{opacity:0.5;}.cls-1{fill:#fac747;}.cls-2{fill:#e65540;}.cls-3{fill:#fdfae9;}.cls-4{fill:#a8867a;}</style></defs><title>Fichier 10</title><g id="Calque_2" data-name="Calque 2"><g id="elements"><path class="Graphic-Style" d="M115.67,93.23c7.86-11.06,12.81-24.7,13.32-37.36,0-.66.05-1.35.05-2.11a50.76,50.76,0,0,0-101.52,0c0,.76,0,1.45.05,2.11.5,12.66,5.46,26.3,13.32,37.36C16.53,104.53,0,126.52,0,151.8c0,.4,0,.8,0,1.21a11.24,11.24,0,0,0,11.24,11h134a11.25,11.25,0,0,0,11.24-11q0-.6,0-1.21C156.55,126.52,140,104.53,115.67,93.23Z"/><path class="cls-1" d="M145.29,161a11.25,11.25,0,0,0,11.24-11q0-.6,0-1.21c0-36.81-35-66.65-78.27-66.65S0,112,0,148.8q0,.6,0,1.21a11.24,11.24,0,0,0,11.25,11Z"/><polygon class="cls-2" points="78.27 160 58.29 106.43 98.26 106.43 78.27 160"/><path class="cls-3" d="M129,50.76c0,28-22.73,62-50.76,62s-50.76-34-50.76-62a50.76,50.76,0,0,1,101.52,0Z"/><path class="cls-4" d="M129,50.76c0,28-22.73-15.11-50.76-15.11S27.51,78.8,27.51,50.76a50.76,50.76,0,0,1,101.52,0Z"/></g></g></svg>