<svg xmlns="http://www.w3.org/2000/svg" viewBox="0 0 147.2 144.58"><defs><style>.Graphic-Style{opacity:0.5;}.cls-1{fill:#fdf8e5;}.cls-2{fill:#b9d861;}.cls-3{fill:#9dbec7;}.cls-4{fill:#cbc7bc;}.cls-5{fill:#fff9f9;}</style></defs><title>Fichier 7</title><g id="Calque_2" data-name="Calque 2"><g id="elements"><path class="Graphic-Style" d="M134.63,37.43v0H91V10a7,7,0,0,0-7-7H63.23a7,7,0,0,0-7,7V37.4H13a13,13,0,0,0-13,13v81.17a13,13,0,0,0,13,13H134.2a13,13,0,0,0,13-13V50.4A13,13,0,0,0,134.63,37.43Zm-61-22.52A6.12,6.12,0,1,1,67.48,21,6.12,6.12,0,0,1,73.6,14.91Z"/><rect class="cls-1" y="34.4" width="147.2" height="107.17" rx="13" ry="13"/><rect class="cls-2" x="13" y="34.4" width="121.63" height="24.15"/><rect class="cls-3" x="10.25" y="68.8" width="38.04" height="39.03"/><rect class="cls-4" x="53.92" y="85.01" width="80.71" height="6.62"/><rect class="cls-4" x="53.92" y="68.8" width="80.71" height="6.62"/><rect class="cls-4" x="53.92" y="101.22" width="80.71" height="6.62"/><rect class="cls-4" x="10.25" y="117.43" width="124.37" height="6.62"/><path class="cls-5" d="M84,0H63.23a7,7,0,0,0-7,7V48.29H91V7A7,7,0,0,0,84,0ZM73.6,24.15A6.12,6.12,0,1,1,79.72,18,6.12,6.12,0,0,1,73.6,24.15Z"/></g></g></svg>