<svg xmlns="http://www.w3.org/2000/svg" viewBox="0 0 152 191.92"><defs><style>.cls-1{opacity:0.5;}.cls-2{fill:#daac3c;}.cls-3{fill:#9a7723;}.cls-4{fill:#ffc648;}.cls-5{fill:#fdfae7;}.cls-6{fill:#9c7927;}.cls-7{fill:#f9fce9;}</style></defs><title>Fichier 1</title><g id="Calque_2" data-name="Calque 2"><g id="elements"><path class="cls-1" d="M151.92,19.77c0-.17,0-.33-.05-.5,0-.37-.1-.73-.17-1.09,0-.17-.06-.35-.1-.52q-.15-.67-.34-1.33c-.08-.26-.17-.51-.26-.76s-.14-.39-.21-.58-.23-.58-.36-.86l-.13-.27a17.48,17.48,0,0,0-1-1.89l0,0h0a17.56,17.56,0,0,0-14.83-8.17H17.59A17.59,17.59,0,0,0,0,21.36v153a17.59,17.59,0,0,0,17.59,17.59H134.42A17.59,17.59,0,0,0,152,174.34v-153C152,20.82,152,20.29,151.92,19.77Z"/><rect class="cls-2" width="152" height="188.16" rx="17.59" ry="17.59"/><path class="cls-3" d="M29.52,0H17.59A17.59,17.59,0,0,0,0,17.59v153a17.59,17.59,0,0,0,17.59,17.59H29.52Z"/><path class="cls-4" d="M17.59,57.79H152V17.59A17.59,17.59,0,0,0,134.42,0H17.59A17.59,17.59,0,0,0,0,17.59V40.2A17.59,17.59,0,0,0,17.59,57.79Z"/><path class="cls-5" d="M11.31,17v22a8.79,8.79,0,0,0,8.79,8.79H152V17.59a17.48,17.48,0,0,0-2.75-9.42H20.1A8.79,8.79,0,0,0,11.31,17Z"/><rect class="cls-6" x="53.39" y="76.81" width="57.11" height="10.5"/><rect class="cls-6" x="53.39" y="99.87" width="57.11" height="10.5"/><path class="cls-7" d="M122.34,99.65v88.5h12.08A17.59,17.59,0,0,0,152,170.57V99.65Z"/></g></g></svg>