<svg xmlns="http://www.w3.org/2000/svg" viewBox="0 0 138.6 146.23"><defs><style>.Graphic-Style{opacity:0.5;}.cls-1{fill:#46bea5;}.cls-2{fill:#3ca48d;}.cls-3{fill:#64d8c1;}.cls-4{fill:#fff8eb;}.cls-5{fill:#4e4852;}</style></defs><title>Fichier 8</title><g id="Calque_2" data-name="Calque 2"><g id="elements"><path class="Graphic-Style" d="M138.55,15.82l0-.17c0-.12,0-.25,0-.37s0-.4-.08-.6l-.06-.34c0-.13-.05-.26-.08-.38s-.06-.25-.09-.37-.09-.34-.14-.52-.06-.23-.1-.35l-.07-.18c-.08-.23-.16-.46-.25-.68l-.06-.16-.15-.35c-.08-.18-.16-.36-.25-.53l-.09-.17c-.08-.15-.15-.3-.23-.45l-.21-.36v0l-.19-.3c-.08-.13-.16-.27-.25-.4q-.34-.5-.73-1l-.33-.37c-.17-.19-.33-.38-.5-.56s-.3-.28-.45-.42l-.47-.43-.51-.41-.47-.36-.56-.38-.49-.3L131,4.58l-.49-.24-.66-.3-.46-.17a14,14,0,0,0-1.86-.55h0A14,14,0,0,0,124.6,3H14A14,14,0,0,0,1,11.83c0,.11-.08.23-.13.35-.14.37-.26.75-.37,1.14l-.12.46c-.09.38-.16.76-.22,1.14,0,.15-.05.3-.07.46A13.89,13.89,0,0,0,0,17V132.23a14,14,0,0,0,14,14H124.6a14,14,0,0,0,14-14V17C138.6,16.6,138.58,16.21,138.55,15.82Z"/><rect class="cls-1" width="138.6" height="143.23" rx="14" ry="14"/><path class="cls-2" d="M14,0A14,14,0,0,0,0,14V129.23a14,14,0,0,0,14,14H24.73a8,8,0,0,0,.08-1.05V0Z"/><path class="cls-3" d="M1.64,7.43A13.93,13.93,0,0,0,0,14V27.82A14,14,0,0,0,13.82,39.7H138.6V14A14,14,0,0,0,127.53.31H13.82A14,14,0,0,0,1.64,7.43Z"/><path class="cls-4" d="M8.6,14V24.09a8,8,0,0,0,8,8h122V14A13.92,13.92,0,0,0,136,6H16.6A8,8,0,0,0,8.6,14Z"/><rect class="cls-5" x="107.17" width="14.55" height="143.23"/></g></g></svg>