<svg xmlns="http://www.w3.org/2000/svg" viewBox="0 0 154 143.33"><defs><style>.cls-1{fill:#867e93;}.cls-2{fill:#9e9aa8;}.cls-3{fill:#7a7189;}.cls-4{fill:#847a93;}.cls-5{fill:#797188;}.cls-6{fill:#8f859e;}.cls-7{fill:#6c6479;}.cls-8{fill:#9b97a6;}.cls-9{fill:#827891;}</style></defs><title>Fichier 1</title><g id="Calque_2" data-name="Calque 2"><g id="elements"><polygon class="cls-1" points="154 46.67 124 0 124 46.67 154 46.67"/><polygon class="cls-2" points="30 0 0 46.67 30 46.67 30 0"/><polygon class="cls-3" points="124 0 77 0 124 46.67 124 0"/><polygon class="cls-4" points="77 0 30 0 30 46.67 77 0"/><polygon class="cls-5" points="124 46.67 77 143.33 154 46.67 124 46.67"/><polygon class="cls-6" points="0 46.67 77 143.33 30 46.67 0 46.67"/><polygon class="cls-7" points="77 46.67 77 143.33 124 46.67 77 46.67"/><polygon class="cls-8" points="77 46.67 77 0 30 46.67 77 46.67"/><polygon class="cls-1" points="124 46.67 77 0 77 46.67 124 46.67"/><polygon class="cls-9" points="30 46.67 77 143.33 77 46.67 30 46.67"/></g></g></svg>