<svg xmlns="http://www.w3.org/2000/svg" viewBox="0 0 148.84 165.92"><defs><style>.Graphic-Style{opacity:0.5;}.cls-1{fill:#fac747;}.cls-2{fill:#ffd775;}.cls-3{fill:#f05b47;}.cls-4{opacity:0.2;}</style></defs><title>Fichier 1</title><g id="Calque_2" data-name="Calque 2"><g id="elements"><path class="Graphic-Style" d="M133.84,45.29H112.66A20,20,0,0,0,127.83,25.9V23a20,20,0,0,0-20-20h-.21c-14,.58-23.25,4.35-33.36,22.47C64.15,7.35,54.94,3.58,40.9,3h-.21a20,20,0,0,0-20,20v2.9A20,20,0,0,0,35.87,45.29H15a15,15,0,0,0-15,15V82.58H7.68v68.35a15,15,0,0,0,15,15H126.16a15,15,0,0,0,15-15V82.58h7.68V60.29A15,15,0,0,0,133.84,45.29ZM107.92,13a10,10,0,0,1,9.91,10v2.9a10,10,0,0,1-10,10H80.1C90.38,14.88,97.47,13.44,107.92,13ZM30.69,25.9V23A10,10,0,0,1,40.6,13c10.45.44,17.55,1.88,27.82,22.9H40.69A10,10,0,0,1,30.69,25.9Z"/><rect class="cls-1" x="7.68" y="62.34" width="133.48" height="100.58" rx="15" ry="15"/><path class="cls-2" d="M148.84,79.58V57.29a15,15,0,0,0-15-15H15a15,15,0,0,0-15,15V79.58Z"/><rect class="cls-3" x="61.26" y="42.29" width="26.32" height="120.64"/><rect class="cls-4" x="7.68" y="79.58" width="133.48" height="6.58"/><path class="cls-3" d="M107.83,42.9H40.69a20,20,0,0,1-20-20V20a20,20,0,0,1,20-20h.21c14,.58,23.25,4.35,33.36,22.47C84.37,4.35,93.59.58,107.62,0h.21a20,20,0,0,1,20,20v2.9A20,20,0,0,1,107.83,42.9ZM80.1,32.9h27.73a10,10,0,0,0,10-10V20a10,10,0,0,0-9.91-10C97.47,10.44,90.38,11.88,80.1,32.9ZM40.6,10a10,10,0,0,0-9.91,10v2.9a10,10,0,0,0,10,10H68.42C58.15,11.88,51.06,10.44,40.6,10Z"/></g></g></svg>