<svg xmlns="http://www.w3.org/2000/svg" viewBox="0 0 155.48 158.48"><defs><style>.Graphic-Style{opacity:0.5;}.cls-1{fill:#4d464e;}.cls-2{fill:#fff;}.cls-3{fill:#c8c4b8;}.cls-4{fill:#e55c3c;}.cls-5{fill:#a7a398;}.cls-6{fill:#4d4550;}</style></defs><title>Fichier 1</title><g id="Calque_2" data-name="Calque 2"><g id="elements"><circle class="Graphic-Style" cx="77.74" cy="80.74" r="77.74"/><circle class="cls-1" cx="77.74" cy="77.74" r="62.48"/><rect class="cls-2" x="74.22" y="15.26" width="7.04" height="11.41"/><rect class="cls-2" x="33.42" y="32.26" width="7.04" height="11.41" transform="translate(-16.03 37.25) rotate(-45)"/><rect class="cls-2" x="14.41" y="75.32" width="11.42" height="7.04"/><rect class="cls-2" x="112.83" y="34.45" width="11.41" height="7.04" transform="translate(7.86 94.92) rotate(-44.99)"/><rect class="cls-2" x="129.65" y="75.32" width="11.42" height="7.04"/><path class="cls-3" d="M77.74,0a77.74,77.74,0,1,0,77.74,77.74A77.74,77.74,0,0,0,77.74,0Zm0,140.22a62.48,62.48,0,1,1,62.48-62.48A62.48,62.48,0,0,1,77.74,140.22Z"/><path class="cls-4" d="M86.12,90.06A5.74,5.74,0,1,1,75.91,95.3c-1.45-2.82-28-54.61-22.89-57.23S84.68,87.24,86.12,90.06Z"/><path class="cls-5" d="M77.48,86.15c-22.38,0-41.95,10-52.57,24.93a62.46,62.46,0,0,0,105.41.39C119.76,96.34,100.06,86.15,77.48,86.15Z"/><rect class="cls-6" x="52.38" y="105.71" width="50.48" height="15.26"/></g></g></svg>