<svg xmlns="http://www.w3.org/2000/svg" viewBox="0 0 156.78 159.78"><defs><style>.cls-1{isolation:isolate;}.Graphic-Style,.cls-3{opacity:0.5;}.cls-2{fill:#ffd775;}.cls-3{mix-blend-mode:soft-light;}.cls-4{opacity:0.2;}.cls-5{fill:#fdfae9;}</style></defs><title>Fichier 2</title><g class="cls-1"><g id="Calque_2" data-name="Calque 2"><g id="elements"><path class="Graphic-Style" d="M143.78,3H13A13,13,0,0,0,0,16V146.78a13,13,0,0,0,13,13H143.78a13,13,0,0,0,13-13V16A13,13,0,0,0,143.78,3Z"/><rect class="cls-2" width="156.78" height="156.78" rx="13" ry="13"/><path class="cls-3" d="M143.78,156.78a13,13,0,0,0,13-13V13a13,13,0,0,0-13-13H78.39V156.78Z"/><path class="cls-4" d="M112.11,86.67a3.33,3.33,0,0,0,2.48-5.56L78.39,40.85,42.19,81.11a3.33,3.33,0,0,0,2.48,5.56H57.07v30.59a3.33,3.33,0,0,0,3.33,3.33h36a3.33,3.33,0,0,0,3.33-3.33V86.67Z"/><path class="cls-5" d="M112.11,82.67a3.33,3.33,0,0,0,2.48-5.56L78.39,36.85,42.19,77.11a3.33,3.33,0,0,0,2.48,5.56H57.07v30.59a3.33,3.33,0,0,0,3.33,3.33h36a3.33,3.33,0,0,0,3.33-3.33V82.67Z"/></g></g></g></svg>