<svg xmlns="http://www.w3.org/2000/svg" viewBox="0 0 106.7 160.22"><defs><style>.Graphic-Style{opacity:0.5;}.cls-1{fill:#bdbab3;}.cls-2{fill:#cbc9bc;}.cls-3{fill:#a9a79b;}.cls-4{fill:#aaa79e;}</style></defs><title>Fichier 2</title><g id="Calque_2" data-name="Calque 2"><g id="Layer_1" data-name="Layer 1"><path class="Graphic-Style" d="M106.7,83.95h0V46.84a14,14,0,0,0-14-14H56.35a13.26,13.26,0,0,0-3.41-8.17C48.87,20,42,17.59,32.51,17.59c-8.76,0-15.1-2-18.33-5.74A10.47,10.47,0,0,1,11.71,4l-3-.48-3-.5A16.58,16.58,0,0,0,9.53,15.65c4.45,5.27,12.18,7.95,23,7.95,16.92,0,17.8,8.5,17.84,9.24H14a14,14,0,0,0-14,14v99.38a14,14,0,0,0,14,14H92.7a14,14,0,0,0,14-14V90.61h0Z"/><path class="cls-1" d="M53.35,32.84l-1.27-3-1.73,0c0-.38-.53-9.29-17.84-9.29-10.8,0-18.53-2.67-23-7.95A16.58,16.58,0,0,1,5.79,0l5.91,1-3-.5,3,.48a10.47,10.47,0,0,0,2.47,7.87c3.23,3.76,9.57,5.74,18.33,5.74,9.49,0,16.36,2.38,20.43,7.07a13.26,13.26,0,0,1,3.41,8.17v3Z"/><rect class="cls-2" y="29.83" width="106.7" height="127.38" rx="14" ry="14"/><polygon class="cls-3" points="56.68 80.95 56.68 29.84 50.02 29.84 50.02 80.95 0 80.95 0 87.61 50.02 87.61 56.68 87.61 106.7 87.61 106.7 80.95 56.68 80.95"/><path class="cls-4" d="M0,124.42v18.79a14,14,0,0,0,14,14H92.7a14,14,0,0,0,14-14V124.42Z"/></g></g></svg>