<svg xmlns="http://www.w3.org/2000/svg" viewBox="0 0 156.79 159.78"><defs><style>.cls-1{isolation:isolate;}.Graphic-Style,.cls-3{opacity:0.5;}.cls-2{fill:#cea235;}.cls-3{mix-blend-mode:soft-light;}.cls-4{fill:#fff;}</style></defs><title>Fichier 7</title><g class="cls-1"><g id="Calque_2" data-name="Calque 2"><g id="Layer_1" data-name="Layer 1"><path class="Graphic-Style" d="M143.79,3H13A13,13,0,0,0,0,16V146.78a13,13,0,0,0,13,13H143.79a13,13,0,0,0,13-13V16A13,13,0,0,0,143.79,3Z"/><rect class="cls-2" width="156.79" height="156.78" rx="13" ry="13"/><path class="cls-3" d="M143.79,156.78a13,13,0,0,0,13-13V13a13,13,0,0,0-13-13H78.39V156.78Z"/><path class="cls-4" d="M120.59,64.41H94.15V38a4,4,0,0,0-4-4H69.08a4,4,0,0,0-4,4V64.41H38.64a4,4,0,0,0-4,4V89.48a4,4,0,0,0,4,4H65.08v26.44a4,4,0,0,0,4,4H90.15a4,4,0,0,0,4-4V93.48h26.44a4,4,0,0,0,4-4V68.41A4,4,0,0,0,120.59,64.41Z"/></g></g></g></svg>