<svg xmlns="http://www.w3.org/2000/svg" viewBox="0 0 158 153"><defs><style>.Graphic-Style{opacity:0.5;}.cls-1{fill:#fdfcea;}.cls-2{fill:#9ebfc8;}.cls-3{opacity:0.2;}.cls-4{fill:#d3aa38;}.cls-5{fill:#ea2832;}</style></defs><title>Fichier 7</title><g id="Calque_2" data-name="Calque 2"><g id="elements"><path class="Graphic-Style" d="M141,5l-31,8L79,3,48,13,17,5C4.42,7.54,2.19,11.17,0,22V129a17,17,0,0,0,17,17l31,7,31-10,31,10,31-7a17,17,0,0,0,17-17V22A17,17,0,0,0,141,5Z"/><path class="cls-1" d="M158,126a17,17,0,0,1-17,17l-31,7L79,140,48,150l-31-7A17,17,0,0,1,0,126V19C2.19,8.17,4.42,4.54,17,2l31,8L79,0l31,10,31-8a17,17,0,0,1,17,17Z"/><path class="cls-2" d="M79,127.39,47.44,137.57,18.34,131H17a5,5,0,0,1-5-5V20.24a17.61,17.61,0,0,1,1.38-4.65,12,12,0,0,1,3.43-1.24l31.56,8.14L79,12.61l30.63,9.88,32.45-8.37A5,5,0,0,1,146,19V126a5,5,0,0,1-5,5h-1.34l-29.1,6.57Z"/><path class="cls-3" d="M141,143a17,17,0,0,0,17-17V19A17,17,0,0,0,141,2l-31,8V150Z"/><polygon class="cls-3" points="48 10 48 150 79 140 79 0 48 10"/><polygon class="cls-4" points="146 89.14 106.38 92.34 96.78 76.33 97.33 75.66 95.23 73.75 94.86 73.14 94.34 72.95 86.61 65.94 63.58 51.77 89.97 16.15 82.94 13.88 53.42 53.73 70.47 64.22 55.01 58.57 12 33.05 12 41.19 51.99 64.93 86.63 77.58 76.4 89.9 45.83 120.97 25.88 132.7 35.85 134.96 50.17 126.53 81.49 94.7 92.04 82.03 102.62 99.66 146 96.16 146 89.14"/><path class="cls-5" d="M74.37,13.83A32.14,32.14,0,0,0,42.24,46c0,32.88,32.14,63.71,32.14,63.71S106.51,78.84,106.51,46A32.14,32.14,0,0,0,74.37,13.83Zm0,54.13A22.33,22.33,0,1,1,96.7,45.63,22.33,22.33,0,0,1,74.37,68Z"/></g></g></svg>