<svg xmlns="http://www.w3.org/2000/svg" viewBox="0 0 156.78 159.78"><defs><style>.cls-1{isolation:isolate;}.Graphic-Style,.cls-3{opacity:0.5;}.cls-2{fill:#c2b59b;}.cls-3{mix-blend-mode:soft-light;}.cls-4{fill:#fff;}</style></defs><title>Fichier 6</title><g class="cls-1"><g id="Calque_2" data-name="Calque 2"><g id="Layer_1" data-name="Layer 1"><path class="Graphic-Style" d="M143.78,3H13A13,13,0,0,0,0,16V146.78a13,13,0,0,0,13,13H143.78a13,13,0,0,0,13-13V16A13,13,0,0,0,143.78,3Z"/><rect class="cls-2" width="156.78" height="156.78" rx="13" ry="13"/><path class="cls-3" d="M143.78,156.78a13,13,0,0,0,13-13V13a13,13,0,0,0-13-13H78.39V156.78Z"/><path class="cls-4" d="M78.39,27.47a50.92,50.92,0,1,0,50.92,50.92A50.92,50.92,0,0,0,78.39,27.47ZM85,118.29V108a6,6,0,0,0-6-6H77.79a6,6,0,0,0-6,6v10.25A40.48,40.48,0,0,1,38.49,85H48.74a6,6,0,0,0,6-6V77.79a6,6,0,0,0-6-6H38.49A40.47,40.47,0,0,1,71.75,38.49V48.74a6,6,0,0,0,6,6H79a6,6,0,0,0,6-6V38.49a40.47,40.47,0,0,1,33.26,33.26H108a6,6,0,0,0-6,6V79a6,6,0,0,0,6,6h10.25A40.47,40.47,0,0,1,85,118.29Z"/></g></g></g></svg>