<svg xmlns="http://www.w3.org/2000/svg" viewBox="0 0 162.75 123.57"><defs><style>.Graphic-Style{opacity:0.5;}.cls-1{fill:#cccabd;}.cls-2{fill:#a6a498;}.cls-3{fill:#db3b21;}.cls-4{fill:#494249;}.cls-5{fill:#ffffed;}</style></defs><title>Fichier 1</title><g id="Calque_2" data-name="Calque 2"><g id="elements"><path class="Graphic-Style" d="M149.75,33.82H91.5c0-6.1-2.07-11.32-6-15.1-8.36-8.08-22.37-7.61-32.61-7.26-1.63.06-3.17.11-4.42.11-.91,0-1.09-.21-1.17-.29-.94-1-1.37-6-1.12-8.28H32.3c-.22,1.83-1,11.3,4.56,17.57a15.08,15.08,0,0,0,11.64,5c1.48,0,3.14-.06,4.89-.12,6.85-.23,18.31-.62,22.4,3.33.73.71,1.71,2,1.71,5H13a13,13,0,0,0-13,13v63.75a13,13,0,0,0,13,13H149.75a13,13,0,0,0,13-13V46.82A13,13,0,0,0,149.75,33.82Z"/><rect class="cls-1" y="30.82" width="162.75" height="89.75" rx="13" ry="13"/><rect class="cls-2" x="15.25" y="45.82" width="132.25" height="59.75"/><circle class="cls-3" cx="95.87" cy="78.2" r="12.87"/><circle class="cls-3" cx="127.54" cy="78.2" r="12.87"/><polygon class="cls-4" points="60.88 74.95 46 74.95 46 60.07 39.5 60.07 39.5 74.95 24.63 74.95 24.63 81.45 39.5 81.45 39.5 96.32 46 96.32 46 81.45 60.88 81.45 60.88 74.95"/><path class="cls-5" d="M91.5,30.82h-14c0-3-1-4.33-1.71-5-4.09-4-15.56-3.56-22.4-3.33-1.75.06-3.41.12-4.89.12a15.08,15.08,0,0,1-11.64-5C31.28,11.3,32.08,1.83,32.3,0H46.21c-.24,2.29.18,7.24,1.12,8.28.08.09.26.29,1.17.29,1.24,0,2.78-.05,4.42-.11,10.23-.35,24.25-.83,32.61,7.26C89.43,19.5,91.5,24.72,91.5,30.82Z"/></g></g></svg>