<svg xmlns="http://www.w3.org/2000/svg" viewBox="0 0 129.05 160.59"><defs><style>.cls-1{isolation:isolate;}.Graphic-Style,.cls-4{opacity:0.5;}.cls-2{fill:#ccc9ba;}.cls-3{opacity:0.2;}.cls-4{mix-blend-mode:soft-light;}</style></defs><title>Fichier 2</title><g class="cls-1"><g id="Calque_2" data-name="Calque 2"><g id="elements"><path class="Graphic-Style" d="M111.61,77.51,95.76,100.66h9.51s2.54,15.22-2.54,20C98.61,124.5,80,130.88,72,136.2V50.56H91a6,6,0,0,0,6-6v-.29a6,6,0,0,0-6-6H69.19a17.91,17.91,0,1,0-9.32,0H38.06a6,6,0,0,0-6,6v.29a6,6,0,0,0,6,6H57V136.2c-8-5.32-26.58-11.7-30.71-15.57-5.07-4.76-2.54-20-2.54-20h9.51L17.44,77.51,0,100.66l10.46.06v18.33c0,10.46,9.83,18.39,28.54,23.78s25.53,17.76,25.53,17.76,6.82-12.37,25.53-17.76,28.54-13.32,28.54-23.78V100.72l10.46-.06ZM54.54,20.92a10,10,0,1,1,10,10A10,10,0,0,1,54.54,20.92Z"/><path class="cls-2" d="M111.61,74.51,95.76,97.66h9.51s2.54,15.22-2.54,20C98.61,121.5,80,127.88,72,133.2V47.56H91a6,6,0,0,0,6-6v-.29a6,6,0,0,0-6-6H69.19a17.91,17.91,0,1,0-9.32,0H38.06a6,6,0,0,0-6,6v.29a6,6,0,0,0,6,6H57V133.2c-8-5.32-26.58-11.7-30.71-15.57-5.07-4.76-2.54-20-2.54-20h9.51L17.44,74.51,0,97.66l10.46.06v18.33c0,10.46,9.83,18.39,28.54,23.78s25.53,17.76,25.53,17.76,6.82-12.37,25.53-17.76,28.54-13.32,28.54-23.78V97.72l10.46-.06ZM54.54,17.92a10,10,0,1,1,10,10A10,10,0,0,1,54.54,17.92Z"/><rect class="cls-3" x="57.03" y="47.56" width="15" height="6.09"/><path class="cls-4" d="M74.51,17.92a10,10,0,0,1-10,10V157.59s6.82-12.37,25.53-17.76,28.54-13.32,28.54-23.78V97.72l10.46-.06L111.61,74.51,95.76,97.66h9.51s2.54,15.22-2.54,20C98.61,121.5,80,127.88,72,133.2V47.56H91a6,6,0,0,0,6-6v-.29a6,6,0,0,0-6-6H69.19A17.91,17.91,0,0,0,64.53,0V7.93A10,10,0,0,1,74.51,17.92Z"/></g></g></g></svg>