<svg xmlns="http://www.w3.org/2000/svg" viewBox="0 0 144.4 147.4"><defs><style>.cls-1{opacity:0.5;}.cls-2{fill:#cbc9bc;}.cls-3{fill:#abaca4;}.cls-4{fill:#aa8678;}.cls-5{fill:#8a8581;}</style></defs><title>Fichier 1</title><g id="Calque_2" data-name="Calque 2"><g id="Layer_1" data-name="Layer 1"><g class="cls-1"><path d="M140.59,76.25,71.15,6.81a13,13,0,0,0-18.38,0l-14,14a13,13,0,0,0,0,18.38l69.44,69.44a13,13,0,0,0,18.38,0l8.79-8.79,5.25-5.25A13,13,0,0,0,140.59,76.25Z"/><path d="M135.34,99.88l-3.54,3.54,4.71,4.72-19.45,19.45L69.33,79.84a3.76,3.76,0,0,0-5.3,0L52.82,91l3.54,3.54L66.67,84.26l48,48a3.41,3.41,0,0,0,4.82,0l21.7-21.7a3.41,3.41,0,0,0,0-4.82Z"/><path d="M3.81,125a13,13,0,0,0,0,18.38l.18.18a13,13,0,0,0,18.38,0l41.5-41.5-7.52-7.52L45.31,83.52Z"/><path d="M140.59,76.25,71.15,6.81a13,13,0,0,0-18.38,0l-14,14a13,13,0,0,0,0,18.38l69.44,69.44a13,13,0,0,0,18.38,0l8.79-8.79,5.25-5.25A13,13,0,0,0,140.59,76.25Z"/><path d="M135.34,99.88l-3.54,3.54,4.71,4.72-19.45,19.45L69.33,79.84a3.76,3.76,0,0,0-5.3,0L52.82,91l3.54,3.54L66.67,84.26l48,48a3.41,3.41,0,0,0,4.82,0l21.7-21.7a3.41,3.41,0,0,0,0-4.82Z"/><path d="M3.81,125a13,13,0,0,0,0,18.38l.18.18a13,13,0,0,0,18.38,0l41.5-41.5-7.52-7.52L45.31,83.52Z"/></g><path class="cls-2" d="M126.56,105.67a13,13,0,0,1-18.38,0L38.73,36.23a13,13,0,0,1,0-18.38l14-14a13,13,0,0,1,18.38,0l69.44,69.44a13,13,0,0,1,0,18.38Z"/><path class="cls-3" d="M56.36,91.58,52.82,88,64,76.84a3.75,3.75,0,0,1,5.3,0l47.74,47.74,19.45-19.45-4.71-4.72,3.54-3.54,5.84,5.84a3.41,3.41,0,0,1,0,4.82l-21.7,21.7a3.41,3.41,0,0,1-4.82,0l-48-48Z"/><path class="cls-4" d="M45.31,80.52,3.81,122a13,13,0,0,0,0,18.38l.18.18a13,13,0,0,0,18.38,0l41.5-41.5Z"/><rect class="cls-5" x="49.61" y="78.74" width="5.83" height="26.26" transform="translate(-49.58 64.05) rotate(-45)"/></g></g></svg>