<svg xmlns="http://www.w3.org/2000/svg" viewBox="0 0 139.33 166"><defs><style>.cls-1{isolation:isolate;}.Graphic-Style,.cls-4{opacity:0.5;}.cls-2{fill:#cb9f32;}.cls-3{fill:#ff8b8c;}.cls-4{mix-blend-mode:soft-light;}.cls-5{fill:#e65f49;}.cls-6{fill:#acc857;}</style></defs><title>Fichier 3</title><g class="cls-1"><g id="Calque_2" data-name="Calque 2"><g id="elements"><path class="Graphic-Style" d="M139.33,90.33c0-33.05-25.64-60.43-59.11-65.25a14.87,14.87,0,0,0-6.67-4.91C80.63,12.48,91,13.65,95,12.33,100,10.67,92.67,3,92.67,3,78,5.61,72.25,13.2,70.07,19.4c-.41,0-.82-.07-1.24-.07a14.43,14.43,0,0,0-11.62,6.07C24.68,31,0,57.91,0,90.33c0,.91,0,1.81.06,2.71v0C0,93.78,0,94.55,0,95.33A63,63,0,0,0,.75,105c2.42,7.1,7.28,13.25,14.58,15.93l5.5,35.38A11.48,11.48,0,0,0,32.17,166h75.67a11.48,11.48,0,0,0,11.34-9.72l5.54-35.69c6.9-2.85,11.48-8.89,13.89-15.8a63.1,63.1,0,0,0,.72-9.46c0-.78,0-1.56-.06-2.34S139.33,91.23,139.33,90.33ZM.29,96.18q0,.33.06.66Q.32,96.51.29,96.18ZM139,96.71l.06-.59Z"/><path class="cls-2" d="M119.18,153.28A11.48,11.48,0,0,1,107.83,163H32.17a11.48,11.48,0,0,1-11.34-9.72L9.33,79.33H130.67Z"/><path class="cls-3" d="M69.67,21.33C31.19,21.33,0,50.88,0,87.33A63,63,0,0,0,.75,97c3.24,9.53,10.88,17.36,22.92,17.36,11.15,0,20.49-6.46,23-15.16,2.51,8.7,11.85,15.16,23,15.16s20.49-6.46,23-15.16c2.51,8.7,11.85,15.16,23,15.16,12.11,0,19.6-8,22.94-17.54a63.1,63.1,0,0,0,.72-9.46C139.33,50.88,108.14,21.33,69.67,21.33Z"/><path class="cls-4" d="M138.61,96.8c-3.34,9.57-10.83,17.54-22.94,17.54-11.15,0-20.49-6.46-23-15.16-2.51,8.7-11.85,15.16-23,15.16s-20.49-6.46-23-15.16c-2.51,8.7-11.85,15.16-23,15.16C11.63,114.33,4,106.51.75,97a63.72,63.72,0,0,1-.69-7C0,90.78,0,91.55,0,92.33A63,63,0,0,0,.75,102c3.24,9.53,10.88,17.36,22.92,17.36,11.15,0,20.49-6.46,23-15.16,2.51,8.7,11.85,15.16,23,15.16s20.49-6.46,23-15.16c2.51,8.7,11.85,15.16,23,15.16,12.11,0,19.6-8,22.94-17.54a63.1,63.1,0,0,0,.72-9.46c0-.79,0-1.56-.06-2.34A64.31,64.31,0,0,1,138.61,96.8Z"/><ellipse class="cls-5" cx="68.83" cy="32.33" rx="14.83" ry="16"/><path class="cls-6" d="M68.83,25.33S66.33,4.67,92.67,0c0,0,7.33,7.67,2.33,9.33S74.67,8.67,68.83,25.33Z"/></g></g></g></svg>