<svg xmlns="http://www.w3.org/2000/svg" viewBox="0 0 105.33 164.76"><defs><style>.cls-1{isolation:isolate;}.Graphic-Style,.cls-7{opacity:0.5;}.cls-2{fill:#fef9e3;}.cls-3{fill:#eb5a55;}.cls-4{fill:#b3d95f;}.cls-5{fill:#ffd879;}.cls-6{fill:#ffd877;}.cls-7{mix-blend-mode:soft-light;}.cls-8{opacity:0.2;}</style></defs><title>Fichier 6</title><g class="cls-1"><g id="Calque_2" data-name="Calque 2"><g id="elements"><path class="Graphic-Style" d="M97.78,49.65h-.18c0-.45,0-.89,0-1.34a30.87,30.87,0,0,0-17-27.6,30.88,30.88,0,0,0-56.17.69A30.86,30.86,0,0,0,8.68,48.3c0,.45,0,.9,0,1.34H7.55a7.55,7.55,0,1,0,0,15.11h3.22l2.53,6.13h0L52,164.76,91.95,70.88h0l2.61-6.12h3.22a7.55,7.55,0,0,0,0-15.11Z"/><circle class="cls-2" cx="39.56" cy="45.3" r="30.88"/><circle class="cls-3" cx="52.67" cy="30.88" r="30.88"/><circle class="cls-4" cx="66.75" cy="45.3" r="30.88"/><path class="cls-5" d="M105.33,54.2a7.56,7.56,0,0,1-7.55,7.55H7.55A7.56,7.56,0,0,1,0,54.2H0a7.55,7.55,0,0,1,7.55-7.55H97.78a7.55,7.55,0,0,1,7.55,7.55Z"/><polygon class="cls-6" points="52.01 161.76 10.78 61.76 94.56 61.76 52.01 161.76"/><polygon class="cls-7" points="52.01 61.76 52.01 161.76 94.56 61.76 52.01 61.76"/><polygon class="cls-8" points="91.95 67.88 94.56 61.76 10.78 61.76 13.3 67.88 91.95 67.88"/></g></g></g></svg>