<svg xmlns="http://www.w3.org/2000/svg" viewBox="0 0 207.52 174.55"><defs><style>.cls-1{opacity:0.5;}.cls-2{fill:#83734f;}.cls-3{fill:#b09a69;}.cls-4{fill:#bda464;}.cls-5{fill:#d3b871;}.cls-6{opacity:0.2;}</style></defs><title>Fichier 7</title><g id="Calque_2" data-name="Calque 2"><g id="elements"><polygon class="cls-1" points="188.67 41.56 168.1 3.77 39.41 3.77 18.84 41.56 0 91.79 18.84 91.79 18.84 100.4 18.84 174.55 188.67 174.55 188.67 100.4 188.67 91.79 207.52 91.79 188.67 41.56"/><polygon class="cls-2" points="39.41 0 18.84 37.79 39.41 48.32 47.07 37.79 39.41 0"/><polygon class="cls-2" points="168.1 0 188.67 37.79 168.1 48.32 160.45 37.79 168.1 0"/><rect class="cls-3" x="39.41" width="128.69" height="56.53"/><rect class="cls-4" x="18.84" y="37.79" width="169.83" height="132.99"/><polygon class="cls-5" points="207.52 88.02 0 88.02 18.84 37.79 188.67 37.79 207.52 88.02"/><rect class="cls-6" x="18.84" y="88.02" width="169.83" height="8.61"/></g></g></svg>