<svg xmlns="http://www.w3.org/2000/svg" viewBox="0 0 121 152.78"><defs><style>.Graphic-Style{opacity:0.5;}.cls-1{fill:#8faf4c;}.cls-2{fill:#729134;}.cls-3{fill:#b1d653;}.cls-4{fill:#fdfae7;}.cls-5{fill:#ed5748;}.cls-6{fill:#48434a;}.cls-7{fill:#4f4550;}</style></defs><title>Fichier 6</title><g id="Calque_2" data-name="Calque 2"><g id="elements"><path class="Graphic-Style" d="M120.94,15.73c0-.13,0-.27,0-.4q-.05-.44-.13-.86c0-.14,0-.28-.08-.42-.08-.36-.17-.7-.27-1.05s-.14-.41-.21-.62-.11-.3-.16-.45-.19-.46-.29-.69l-.09-.2a13.93,13.93,0,0,0-.85-1.54h0A14,14,0,0,0,107,3H14A14,14,0,0,0,0,17V138.78a14,14,0,0,0,14,14h93a14,14,0,0,0,14-14V17C121,16.57,121,16.15,120.94,15.73Z"/><rect class="cls-1" width="121" height="149.78" rx="14" ry="14"/><path class="cls-2" d="M23.5,0H14A14,14,0,0,0,0,14V135.78a14,14,0,0,0,14,14h9.5Z"/><path class="cls-3" d="M14,46H121V14A14,14,0,0,0,107,0H14A14,14,0,0,0,0,14V32A14,14,0,0,0,14,46Z"/><path class="cls-4" d="M9,13.5V31a7,7,0,0,0,7,7H121V14a13.92,13.92,0,0,0-2.19-7.5H16A7,7,0,0,0,9,13.5Z"/><rect class="cls-5" x="65" width="19.5" height="19"/><rect class="cls-6" x="42.5" y="61.14" width="57" height="8.36"/><rect class="cls-7" x="42.5" y="79.5" width="57" height="8.36"/></g></g></svg>