<svg xmlns="http://www.w3.org/2000/svg" viewBox="0 0 147.89 143.3"><defs><style>.Graphic-Style{opacity:0.5;}.cls-1{fill:#f8fcee;}.cls-2{fill:#ec5947;}.cls-3{opacity:0.2;}.cls-4{fill:#efffe6;}.cls-5{fill:#cac7b8;}.cls-6{fill:#aaa7a0;}.cls-7{fill:#a9a69d;}.cls-8{fill:#c9c5bc;}</style></defs><title>Fichier 7</title><g id="Calque_2" data-name="Calque 2"><g id="elements"><path class="Graphic-Style" d="M134.89,3H13A13,13,0,0,0,0,16V130.3a13,13,0,0,0,13,13H134.89a13,13,0,0,0,13-13V16A13,13,0,0,0,134.89,3Z"/><rect class="cls-1" width="147.89" height="140.3" rx="13" ry="13"/><path class="cls-2" d="M134.89,0H13A13,13,0,0,0,0,13V35.75H147.89V13A13,13,0,0,0,134.89,0Z"/><rect class="cls-3" y="28.93" width="147.89" height="6.82"/><circle class="cls-4" cx="11.89" cy="15.41" r="8.21"/><circle class="cls-4" cx="30.77" cy="15.41" r="8.21"/><circle class="cls-4" cx="49.66" cy="15.41" r="8.21"/><rect class="cls-5" x="7.21" y="43.32" width="29.05" height="7.83"/><rect class="cls-5" x="7.21" y="59.74" width="29.05" height="7.83"/><rect class="cls-5" x="7.21" y="76.16" width="29.05" height="7.83"/><rect class="cls-5" x="7.21" y="92.58" width="29.05" height="7.83"/><rect class="cls-5" x="7.21" y="109" width="29.05" height="7.83"/><rect class="cls-6" x="43.59" y="43.32" width="95.98" height="24.25"/><rect class="cls-7" x="43.59" y="76.16" width="36.88" height="36.75"/><rect class="cls-8" x="87.54" y="76.16" width="52.03" height="6.07"/><rect class="cls-8" x="87.54" y="91.5" width="52.03" height="6.07"/><rect class="cls-8" x="87.54" y="106.84" width="52.03" height="6.07"/><rect class="cls-8" x="43.59" y="122.19" width="95.98" height="6.07"/></g></g></svg>