<svg xmlns="http://www.w3.org/2000/svg" viewBox="0 0 120.8 150.08"><defs><style>.Graphic-Style{opacity:0.5;}.cls-1{fill:#fffced;}.cls-2{fill:#fff;}.cls-3{fill:#dddacb;}.cls-4{fill:#bfbdb4;}</style></defs><title>Fichier 8</title><g id="Calque_2" data-name="Calque 2"><g id="elements"><path class="Graphic-Style" d="M96,3H12A12,12,0,0,0,0,15V138.09a12,12,0,0,0,12,12h96.8a12,12,0,0,0,12-12V27.81Z"/><path class="cls-1" d="M12,0A12,12,0,0,0,0,12V135.09a12,12,0,0,0,12,12h96.8a12,12,0,0,0,12-12V24.81L96,0Z"/><path class="cls-2" d="M108,24.81H120.8L96,0V12.81A12,12,0,0,0,108,24.81Z"/><path class="cls-3" d="M96,12.81v4a12,12,0,0,0,12,12H120.8v-4H108A12,12,0,0,1,96,12.81Z"/><rect class="cls-4" x="16.06" y="45.96" width="88.67" height="5.74"/><rect class="cls-4" x="16.06" y="61.56" width="88.67" height="5.74"/><rect class="cls-4" x="16.06" y="77.15" width="88.67" height="5.74"/><rect class="cls-4" x="16.06" y="92.75" width="88.67" height="5.74"/><rect class="cls-4" x="16.06" y="108.34" width="88.67" height="5.74"/></g></g></svg>