<svg xmlns="http://www.w3.org/2000/svg" viewBox="0 0 139.5 140"><defs><style>.Graphic-Style{opacity:0.5;}.cls-1{fill:#eae2cb;}.cls-2{fill:#ada69c;}.cls-3{fill:#ed5748;}.cls-4{fill:#a8867a;}</style></defs><title>Fichier 9</title><g id="Calque_2" data-name="Calque 2"><g id="elements"><path class="Graphic-Style" d="M129,3H10.5A10.5,10.5,0,0,0,0,13.5v116A10.5,10.5,0,0,0,10.5,140H129a10.5,10.5,0,0,0,10.5-10.5V13.5A10.5,10.5,0,0,0,129,3Z"/><rect class="cls-1" width="139.5" height="137" rx="10.5" ry="10.5"/><rect y="38" width="139.5" height="5"/><rect class="cls-2" y="59.5" width="139.5" height="2"/><rect class="cls-2" y="74" width="139.5" height="2"/><rect class="cls-2" y="88.5" width="139.5" height="2"/><rect class="cls-2" y="103" width="139.5" height="2"/><rect class="cls-2" y="117.5" width="139.5" height="2"/><rect class="cls-3" x="19" y="18.75" width="2" height="118.25"/><path class="cls-4" d="M129,0H10.5A10.5,10.5,0,0,0,0,10.5V43H139.5V10.5A10.5,10.5,0,0,0,129,0Z"/></g></g></svg>