<svg xmlns="http://www.w3.org/2000/svg" viewBox="0 0 157.74 126.11"><defs><style>.cls-1{fill:#c1b794;}.cls-2{fill:#e8e3c6;}.cls-3{fill:#a9a69d;}</style></defs><title>Fichier 6</title><g id="Calque_2" data-name="Calque 2"><g id="elements"><path d="M148.74,3H26.49a9,9,0,0,0-9,9V60H16A16,16,0,0,0,0,76v34.1a16,16,0,0,0,16,16H148.74a9,9,0,0,0,9-9V12A9,9,0,0,0,148.74,3Z"/><rect class="cls-1" y="57.01" width="59.81" height="66.1" rx="16" ry="16"/><path class="cls-2" d="M148.74,0H26.49a9,9,0,0,0-9,9V123.11H148.74a9,9,0,0,0,9-9V9A9,9,0,0,0,148.74,0Z"/><rect class="cls-3" x="29.9" y="14.34" width="113.14" height="17.14"/><rect class="cls-3" x="29.9" y="43.02" width="66.98" height="8.04"/><rect class="cls-3" x="29.9" y="57.53" width="66.98" height="8.04"/><rect class="cls-3" x="29.9" y="72.05" width="66.98" height="8.04"/><rect class="cls-3" x="29.9" y="88.56" width="113.14" height="8.05"/><rect class="cls-3" x="29.9" y="103.08" width="113.14" height="8.04"/><rect class="cls-3" x="104.23" y="43.02" width="38.82" height="37.07"/></g></g></svg>