<svg xmlns="http://www.w3.org/2000/svg" viewBox="0 0 170 158.5"><defs><style>.Graphic-Style{opacity:0.5;}.cls-1{fill:#a9a69d;}.cls-2,.cls-8{opacity:0.2;}.cls-3{fill:#cac8b9;}.cls-4{fill:#cdc9c0;}.cls-5{fill:#a6a7a1;}.cls-6{fill:#9ebfc8;}.cls-7{fill:#7fa2a8;}.cls-8{fill:#fff;}</style></defs><title>Fichier 5</title><g id="Calque_2" data-name="Calque 2"><g id="elements"><path class="Graphic-Style" d="M159.5,3H10.5A10.5,10.5,0,0,0,0,13.5V114a10.5,10.5,0,0,0,10.5,10.5H56.75v16.91A25.53,25.53,0,0,0,37,158.5H133a25.53,25.53,0,0,0-19.71-17.09V124.5H159.5A10.5,10.5,0,0,0,170,114V13.5A10.5,10.5,0,0,0,159.5,3Z"/><rect class="cls-1" x="56.75" y="117" width="56.5" height="29"/><rect class="cls-2" x="56.75" y="117" width="56.5" height="13"/><path class="cls-3" d="M133,155.5A25.51,25.51,0,0,0,108.75,138H61.25A25.51,25.51,0,0,0,37,155.5Z"/><rect class="cls-4" width="170" height="121.5" rx="10.5" ry="10.5"/><path class="cls-5" d="M159.5,0H10.5A10.5,10.5,0,0,0,0,10.5v89H170v-89A10.5,10.5,0,0,0,159.5,0Z"/><rect class="cls-6" x="17.5" y="19" width="135" height="80.5"/><rect class="cls-7" x="17.5" y="19" width="135" height="5"/><polygon class="cls-8" points="124 19 17.5 19 17.5 99.5 43.5 99.5 124 19"/></g></g></svg>