<svg xmlns="http://www.w3.org/2000/svg" viewBox="0 0 187 139.67"><defs><style>.Graphic-Style{opacity:0.5;}.cls-1{fill:#a8a5a0;}.cls-2{fill:#cac8bc;}.cls-3{fill:#85827d;}.cls-4{fill:#9abfc5;}.cls-5{fill:#8aa3aa;}.cls-6{fill:#fff;opacity:0.2;}</style></defs><title>Fichier 11</title><g id="Calque_2" data-name="Calque 2"><g id="elements"><path class="Graphic-Style" d="M175,118V18A15,15,0,0,0,160,3H27A15,15,0,0,0,12,18V118H0v6.67a15,15,0,0,0,15,15H172a15,15,0,0,0,15-15V118Z"/><rect class="cls-1" x="12" width="163" height="132.67" rx="15" ry="15"/><path class="cls-2" d="M0,115v6.67a15,15,0,0,0,15,15H172a15,15,0,0,0,15-15V115Z"/><rect class="cls-3" x="74" y="115" width="39" height="10.83"/><rect class="cls-4" x="29.17" y="18.33" width="128.67" height="84.67"/><rect class="cls-5" x="29.17" y="18.33" width="128.67" height="5"/><polygon class="cls-6" points="135.2 18.33 29.17 18.33 29.17 103 57.28 103 135.2 18.33"/></g></g></svg>