<svg xmlns="http://www.w3.org/2000/svg" viewBox="0 0 198.01 185.14"><defs><style>.cls-1{opacity:0.5;}.cls-2{fill:#787087;}.cls-3{fill:#4b444b;}.cls-4{fill:#fffceb;}.cls-5{fill:#fffff3;}</style></defs><title>Fichier 6</title><g id="Calque_2" data-name="Calque 2"><g id="elements"><path class="cls-1" d="M193.46,52.59H1.18v12.8c0,.47,0,.93.07,1.39,0,.2,0,.4.06.6s.06.38.09.56a16.31,16.31,0,0,0,.34,1.61v0h0a16.35,16.35,0,0,0,9.49,10.89h-10v88.34a16.33,16.33,0,0,0,16.33,16.33H181.68A16.33,16.33,0,0,0,198,168.81V80.47H188a16.37,16.37,0,0,0,8.93-9.16h0c.18-.46.34-.92.47-1.4h0c.13-.47.25-.94.34-1.42,0-.11,0-.22.05-.34.07-.38.13-.77.17-1.16s.08-1,.08-1.58V52.59Z"/><path d="M50.47,45.32h0l15.21-1.46h0L197.23,31.29l-.43-4.53h0L196,18.55c-.05-.53-.13-1.06-.23-1.57-.07-.36-.17-.72-.26-1.07,0-.13-.06-.27-.1-.4-.13-.45-.29-.89-.46-1.32l0-.07c-.18-.45-.37-.88-.59-1.31v0h0A16.32,16.32,0,0,0,178.2,3.84L91.91,12.1h0L76.7,13.55h0L26.39,18.36h0L14.78,19.47c-.47,0-.92.12-1.38.2l-.58.12-.56.14a16.09,16.09,0,0,0-1.58.5h0A16.34,16.34,0,0,0,.24,33.07h0v0a15.9,15.9,0,0,0-.18,1.62c0,.19,0,.38,0,.57s0,.4,0,.61c0,.46,0,.92.06,1.38L1.29,50Z"/><path class="cls-2" d="M1.18,165a16.33,16.33,0,0,0,16.33,16.33H181.68A16.33,16.33,0,0,0,198,165V76.7H1.18Z"/><path class="cls-3" d="M1.18,48.83v12.8A16.33,16.33,0,0,0,17.52,78H181.68A16.33,16.33,0,0,0,198,61.62V48.83Z"/><path class="cls-4" d="M1.18,50V61.62a16.34,16.34,0,0,0,.56,4.18L13.33,77.39a16.32,16.32,0,0,0,4.18.56H29.18Z"/><polygon class="cls-4" points="79.72 77.95 95 77.95 65.87 48.83 50.59 48.83 79.72 77.95"/><polygon class="cls-4" points="143.51 77.95 158.8 77.95 129.67 48.83 114.38 48.83 143.51 77.95"/><path class="cls-4" d="M193.46,48.83H178.18l18.71,18.71A16.27,16.27,0,0,0,198,61.62V53.38Z"/><path class="cls-3" d="M1.29,46.26.08,33.52A16.33,16.33,0,0,1,14.78,15.7L178.2.08A16.33,16.33,0,0,1,196,14.78l1.22,12.74Z"/><path class="cls-4" d="M1.19,45.13.08,33.52A16.36,16.36,0,0,1,.23,29.3L10.67,16.66a16.35,16.35,0,0,1,4.11-1L26.39,14.6Z"/><polygon class="cls-4" points="76.7 9.78 91.91 8.33 65.68 40.1 50.47 41.56 76.7 9.78"/><polygon class="cls-4" points="140.2 3.71 155.42 2.25 129.19 34.02 113.98 35.48 140.2 3.71"/><path class="cls-4" d="M192.7,28l-15.21,1.45L194.33,9A16.29,16.29,0,0,1,196,14.78L196.8,23Z"/><rect class="cls-5" x="55.8" y="105.14" width="85.9" height="6.74"/><rect class="cls-5" x="55.8" y="125.66" width="85.9" height="6.74"/><rect class="cls-5" x="55.8" y="146.19" width="42.95" height="6.74"/></g></g></svg>