<svg xmlns="http://www.w3.org/2000/svg" viewBox="0 0 156.78 159.78"><defs><style>.cls-1{isolation:isolate;}.Graphic-Style,.cls-3{opacity:0.5;}.cls-2{fill:#7a7289;}.cls-3{mix-blend-mode:soft-light;}.cls-4{fill:#fff;fill-rule:evenodd;}</style></defs><title>Fichier 14</title><g class="cls-1"><g id="Calque_2" data-name="Calque 2"><g id="elements"><path class="Graphic-Style" d="M143.78,3H13A13,13,0,0,0,0,16V146.78a13,13,0,0,0,13,13H143.78a13,13,0,0,0,13-13V16A13,13,0,0,0,143.78,3Z"/><rect class="cls-2" width="156.78" height="156.78" rx="13" ry="13"/><path class="cls-3" d="M143.78,156.78a13,13,0,0,0,13-13V13a13,13,0,0,0-13-13H78.39V156.78Z"/><path class="cls-4" d="M107,61.57,83.84,83,107,104.44a4.11,4.11,0,0,1,0,6.13l-21.51,19.9L83.84,132l-3.31,3.06a5,5,0,0,1-6.62,0,4.05,4.05,0,0,1-1.22-3.75,3.88,3.88,0,0,1-.15-.67V93.46L59,106l-1.65,1.53-3.31,3.06a5,5,0,0,1-6.62,0,4.11,4.11,0,0,1,0-6.12l3.31-3.06,1.65-1.53L70.6,83,50.75,64.63l-3.31-3.06a4.11,4.11,0,0,1,0-6.12,5,5,0,0,1,6.62,0l3.31,3.06,15.18,14V35.37a3.86,3.86,0,0,1,.15-.67,4.05,4.05,0,0,1,1.22-3.75,5,5,0,0,1,6.62,0L107,55.45A4.11,4.11,0,0,1,107,61.57ZM97.08,107.5l-15.17-14v28.09Zm-15.17-63V72.55l15.17-14Z"/></g></g></g></svg>