<svg xmlns="http://www.w3.org/2000/svg" viewBox="0 0 156.78 159.78"><defs><style>.cls-1{isolation:isolate;}.cls-2,.cls-5{fill-rule:evenodd;}.cls-3{fill:#9b8579;}.cls-4{opacity:0.5;mix-blend-mode:soft-light;}.cls-5{fill:#fff;}</style></defs><title>Fichier 6</title><g class="cls-1"><g id="Calque_2" data-name="Calque 2"><g id="elements"><path class="cls-2" d="M143.78,3H13A13,13,0,0,0,0,16V146.78a13,13,0,0,0,13,13H143.78a13,13,0,0,0,13-13V16A13,13,0,0,0,143.78,3Z"/><rect class="cls-3" width="156.78" height="156.78" rx="13" ry="13"/><path class="cls-4" d="M143.78,156.78a13,13,0,0,0,13-13V13a13,13,0,0,0-13-13H78.39V156.78Z"/><path class="cls-5" d="M109.52,87a7.84,7.84,0,0,1-.86-.09c-.29,0-.57.09-.87.09s-.57-.07-.86-.09a7.84,7.84,0,0,1-.86.09,10.29,10.29,0,0,1-2.77-.42c-.28.65-.54,1.31-.86,1.94-.08.16-.16.34-.24.5a34.66,34.66,0,0,1-10,11.81h0a35,35,0,0,1-5.85,3.46H56.64a34.84,34.84,0,0,1-5.85-3.46h0a34.66,34.66,0,0,1-10-11.81c-.09-.16-.16-.34-.24-.5-.46-.93-.88-1.88-1.26-2.86-.13-.32-.24-.66-.36-1-.3-.85-.56-1.71-.8-2.59-.11-.39-.21-.79-.3-1.19-.2-.88-.35-1.78-.49-2.69-.06-.38-.13-.76-.17-1.14a34.61,34.61,0,0,1-.24-3.9V55.91a3.46,3.46,0,0,1,3.46-3.46H102.6a3.46,3.46,0,0,1,1.24.25,10.38,10.38,0,0,1,2.22-.25c.26,0,.49.08.74.1s.65-.1,1-.1a12.11,12.11,0,0,1,12.11,12.1V76.66A10.38,10.38,0,0,1,109.52,87ZM113,64.56a5.19,5.19,0,0,0-10.38,0V74.93a5.19,5.19,0,0,0,10.38,0Z"/></g></g></g></svg>