<svg xmlns="http://www.w3.org/2000/svg" viewBox="0 0 147.23 151.73"><defs><style>.cls-1{opacity:0.5;}.cls-2,.cls-8{font-size:55.1px;font-family:MyriadPro-Regular, Myriad Pro;}.cls-3{fill:#749039;}.cls-4{fill:#8fb442;}.cls-5{fill:#b5d55a;}.cls-6{fill:#739137;}.cls-7{fill:#b7d563;}.cls-8{fill:#749238;}.cls-9{fill:#dfaa4c;}.cls-10{fill:#fcc949;}</style></defs><title>Fichier 4</title><g id="Calque_2" data-name="Calque 2"><g id="elements"><g class="cls-1"><text class="cls-2" transform="translate(60.34 53.34)">$</text></g><path class="cls-1" d="M136.23,3H11A11,11,0,0,0,0,14V135.92a11,11,0,0,0,11,11H95.06c4.09,2.91,10.81,4.82,18.41,4.82s14.31-1.9,18.4-4.82h4.35a11,11,0,0,0,11-11V14A11,11,0,0,0,136.23,3Z"/><rect class="cls-3" y="78.58" width="147.23" height="65.33" rx="11" ry="11"/><rect class="cls-4" y="74.37" width="147.23" height="65.33" rx="11" ry="11"/><rect class="cls-3" y="62.62" width="147.23" height="65.33" rx="11" ry="11"/><rect class="cls-4" y="58.41" width="147.23" height="65.33" rx="11" ry="11"/><rect class="cls-3" y="46.67" width="147.23" height="65.33" rx="11" ry="11"/><rect class="cls-4" y="42.45" width="147.23" height="65.33" rx="11" ry="11"/><rect class="cls-3" y="30.71" width="147.23" height="65.33" rx="11" ry="11"/><rect class="cls-4" y="26.49" width="147.23" height="65.33" rx="11" ry="11"/><rect class="cls-3" y="14.75" width="147.23" height="65.33" rx="11" ry="11"/><rect class="cls-4" y="10.54" width="147.23" height="65.33" rx="11" ry="11"/><rect class="cls-5" width="147.23" height="65.33" rx="11" ry="11"/><rect class="cls-6" x="10.39" y="10.54" width="126.45" height="44.26"/><circle class="cls-7" cx="74.31" cy="33.16" r="30.48"/><text class="cls-8" transform="translate(60.34 50.34)">$</text><path class="cls-9" d="M113.47,116.82c-12.47,0-22.58,5.12-22.58,11.44v9c0,6.32,10.11,11.44,22.58,11.44S136,143.61,136,137.29v-9C136,121.94,125.94,116.82,113.47,116.82Z"/><path class="cls-10" d="M113.47,108.09c-12.47,0-22.58,5.12-22.58,11.44v9c0,6.32,10.11,11.44,22.58,11.44S136,134.88,136,128.56v-9C136,113.21,125.94,108.09,113.47,108.09Z"/><path class="cls-9" d="M113.47,104.83c-12.47,0-22.58,5.12-22.58,11.44v9c0,6.32,10.11,11.44,22.58,11.44S136,131.62,136,125.3v-9C136,110,125.94,104.83,113.47,104.83Z"/><path class="cls-10" d="M113.47,95.5c-12.47,0-22.58,5.12-22.58,11.44v9c0,6.32,10.11,11.44,22.58,11.44S136,122.29,136,116v-9C136,100.63,125.94,95.5,113.47,95.5Z"/><path class="cls-9" d="M113.47,91.77c-12.47,0-22.58,5.12-22.58,11.44v9c0,6.32,10.11,11.44,22.58,11.44S136,118.56,136,112.24v-9C136,96.89,125.94,91.77,113.47,91.77Z"/><ellipse class="cls-10" cx="113.47" cy="103.21" rx="22.58" ry="11.44"/></g></g></svg>