<svg xmlns="http://www.w3.org/2000/svg" viewBox="0 0 156.78 159.78"><defs><style>.cls-1{isolation:isolate;}.cls-2{fill:#b8d762;}.cls-3{opacity:0.5;mix-blend-mode:soft-light;}.cls-4{fill:#fff;fill-rule:evenodd;}</style></defs><title>Fichier 4</title><g class="cls-1"><g id="Calque_2" data-name="Calque 2"><g id="elements"><path d="M143.78,3H13A13,13,0,0,0,0,16V146.78a13,13,0,0,0,13,13H143.78a13,13,0,0,0,13-13V16A13,13,0,0,0,143.78,3Z"/><rect class="cls-2" width="156.78" height="156.78" rx="13" ry="13"/><path class="cls-3" d="M143.78,156.78a13,13,0,0,0,13-13V13a13,13,0,0,0-13-13H78.39V156.78Z"/><path class="cls-4" d="M107.55,124.59H48.72A14.71,14.71,0,0,1,34,109.88V51.06A14.71,14.71,0,0,1,48.72,36.35h58.83a14.71,14.71,0,0,1,14.71,14.71v58.83A14.71,14.71,0,0,1,107.55,124.59ZM78.14,100.08a4.9,4.9,0,0,0,9.81,0A29.42,29.42,0,0,0,58.53,70.67a4.9,4.9,0,0,0,0,9.8A19.61,19.61,0,0,1,78.14,100.08Zm-29.41,0a9.8,9.8,0,1,0,9.8-9.8A9.81,9.81,0,0,0,48.72,100.08Zm9.8-49a4.9,4.9,0,0,0,0,9.8,39.22,39.22,0,0,1,39.22,39.22,4.9,4.9,0,0,0,9.8,0A49,49,0,0,0,58.53,51.06Z"/></g></g></g></svg>