<svg xmlns="http://www.w3.org/2000/svg" viewBox="0 0 156.78 156.78"><defs><style>.cls-1{isolation:isolate;}.cls-2{fill:#7a7289;}.cls-3{opacity:0.5;mix-blend-mode:soft-light;}.cls-4{fill:#fff;}</style></defs><title>Fichier 7</title><g class="cls-1"><g id="Calque_2" data-name="Calque 2"><g id="elements"><rect class="cls-2" width="156.78" height="156.78" rx="13" ry="13"/><path class="cls-3" d="M143.78,156.78a13,13,0,0,0,13-13V13a13,13,0,0,0-13-13H78.39V156.78Z"/><path class="cls-4" d="M65.54,104.25,80.6,119.08l14.74-15.17C91.07,99.58,86,97.06,80.6,97.06S69.87,99.71,65.54,104.25Z"/><path class="cls-4" d="M80.6,68c-13.84,0-26.33,6.35-35.13,16.48L56.16,95c6.08-7.38,14.78-12,24.44-12a31.56,31.56,0,0,1,23.94,11.43L115,83.67A46.38,46.38,0,0,0,80.6,68Z"/><path class="cls-4" d="M80.6,37.38c-23.7,0-44.32,11.3-54.7,27.85l11,10.86C43.75,62.23,60.75,52.38,80.6,52.38c19.24,0,35.8,9.25,43,22.43l10.73-11C123.69,48,103.6,37.38,80.6,37.38Z"/></g></g></g></svg>