<svg xmlns="http://www.w3.org/2000/svg" viewBox="0 0 141.87 159.4"><defs><style>.Graphic-Style{opacity:0.5;}.cls-1{fill:#bad964;}.cls-2{opacity:0.2;}.cls-3{fill:#c8a32e;}</style></defs><title>Fichier 7</title><g id="Calque_2" data-name="Calque 2"><g id="elements"><polygon class="Graphic-Style" points="111.53 92.74 123.92 92.74 120.53 88.04 120.53 88.04 98.29 57.27 113.24 57.27 70.94 3 28.63 57.27 43.59 57.27 21.34 88.04 21.34 88.04 17.95 92.74 30.34 92.74 0 133.76 54.91 133.76 54.91 140.6 54.91 159.4 86.96 159.4 86.96 140.6 86.96 133.76 141.87 133.76 111.53 92.74"/><polygon class="cls-1" points="70.94 0 113.24 54.27 98.29 54.27 123.92 89.74 111.53 89.74 141.87 130.76 70.94 130.76 0 130.76 30.34 89.74 17.95 89.74 43.59 54.27 28.63 54.27 70.94 0"/><g class="cls-2"><polygon points="98.29 54.27 113.24 54.27 108.91 48.72 32.96 48.72 28.63 54.27 43.59 54.27 98.29 54.27"/><polygon points="111.53 89.74 123.92 89.74 120.53 85.04 21.34 85.04 17.95 89.74 30.34 89.74 111.53 89.74"/><polygon points="4.49 124.7 0 130.76 70.94 130.76 141.87 130.76 137.39 124.7 4.49 124.7"/></g><rect class="cls-3" x="54.91" y="130.76" width="32.05" height="25.64"/><rect class="cls-2" x="54.91" y="130.76" width="32.05" height="6.84"/><polygon class="cls-2" points="141.87 130.76 111.53 89.74 123.92 89.74 98.29 54.27 113.24 54.27 70.94 0 70.94 130.76 141.87 130.76"/></g></g></svg>