<svg xmlns="http://www.w3.org/2000/svg" viewBox="0 0 156.78 159.78"><defs><style>.cls-1{isolation:isolate;}.cls-2,.cls-5{fill-rule:evenodd;}.cls-3{fill:#ec5947;}.cls-4{opacity:0.5;mix-blend-mode:soft-light;}.cls-5{fill:#fff;}</style></defs><title>Fichier 8</title><g class="cls-1"><g id="Calque_2" data-name="Calque 2"><g id="elements"><path class="cls-2" d="M143.78,3H13A13,13,0,0,0,0,16V146.78a13,13,0,0,0,13,13H143.78a13,13,0,0,0,13-13V16A13,13,0,0,0,143.78,3Z"/><rect class="cls-3" width="156.78" height="156.78" rx="13" ry="13"/><path class="cls-4" d="M143.78,156.78a13,13,0,0,0,13-13V13a13,13,0,0,0-13-13H78.39V156.78Z"/><path class="cls-5" d="M122.6,107.75a10.5,10.5,0,0,1-14.85,14.85L95.38,110.23a11.15,11.15,0,0,1-.85-1,42,42,0,1,1,14.66-14.66,10.75,10.75,0,0,1,1,.86ZM92.91,53.31a28,28,0,1,0,0,39.6A28,28,0,0,0,92.91,53.31Z"/></g></g></g></svg>