<svg xmlns="http://www.w3.org/2000/svg" viewBox="0 0 150.87 157.89"><defs><style>.Graphic-Style,.cls-4{opacity:0.5;}.cls-1{fill:#c6c7b9;}.cls-2{fill:#a1bfc7;}.cls-3{fill:#78939e;}.cls-4{fill:#fff;}.cls-5{fill:#ab8b7e;}</style></defs><title>Fichier 1</title><g id="Calque_2" data-name="Calque 2"><g id="elements"><path class="Graphic-Style" d="M147.79,138.55l-2.12-2.12-25.1-25.1L113.25,104a63,63,0,1,0-17,15.52l35.29,35.29a10.5,10.5,0,0,0,14.85,0l1.41-1.42A10.5,10.5,0,0,0,147.79,138.55Z"/><path class="cls-1" d="M147.79,135.55,113.25,101a63,63,0,1,0-17,15.52l35.29,35.29a10.5,10.5,0,0,0,14.85,0l1.41-1.42A10.5,10.5,0,0,0,147.79,135.55Z"/><circle class="cls-2" cx="63" cy="63" r="44"/><path class="cls-3" d="M63,28a44,44,0,0,1,43.77,39.5A44.49,44.49,0,0,0,107,63a44,44,0,0,0-88,0,44.49,44.49,0,0,0,.23,4.5A44,44,0,0,1,63,28Z"/><circle class="cls-4" cx="39.87" cy="51.25" r="11.75"/><rect class="cls-5" x="113.49" y="111.26" width="23" height="35.5" transform="translate(-54.61 126.16) rotate(-45)"/></g></g></svg>