<svg xmlns="http://www.w3.org/2000/svg" viewBox="0 0 153 136"><defs><style>.Graphic-Style{opacity:0.5;}.cls-1{fill:#f7efe2;}.cls-2{fill:#9ebfc8;}.cls-3{fill:#829ba0;}.cls-4{fill:#fff;opacity:0.2;}.cls-5{fill:#a8a9a1;}.cls-6{fill:#c9c5c1;}.cls-7{fill:#a3c0c4;}.cls-8{fill:#829aa4;}</style></defs><title>Fichier 9</title><g id="Calque_2" data-name="Calque 2"><g id="elements"><path class="Graphic-Style" d="M145.41,44.6H106.5V17a14,14,0,0,0-14-14H14A14,14,0,0,0,0,17V122a14,14,0,0,0,14,14H92.5a13.91,13.91,0,0,0,6.29-1.5,6.45,6.45,0,0,0,4.06,1.5h42.56c4.19,0,7.59-4.31,7.59-9.62V54.22C153,48.91,149.6,44.6,145.41,44.6Z"/><rect class="cls-1" width="106.5" height="133" rx="14" ry="14"/><rect class="cls-2" x="19.25" y="19.5" width="68" height="88"/><rect class="cls-3" x="19.25" y="19.5" width="68" height="7"/><polygon class="cls-4" points="87.25 23 87.25 19.5 19.25 19.5 19.25 93.98 87.25 23"/><circle class="cls-5" cx="53.25" cy="120.75" r="6.75"/><path class="cls-6" d="M153,123.38c0,5.31-3.4,9.62-7.59,9.62H102.85c-4.19,0-7.59-4.31-7.59-9.62V51.22c0-5.31,3.4-9.62,7.59-9.62h42.56c4.19,0,7.59,4.31,7.59,9.62Z"/><rect class="cls-7" x="105.7" y="52.13" width="36.87" height="63.35"/><rect class="cls-8" x="105.7" y="52.13" width="36.87" height="5.04"/><polygon class="cls-4" points="142.56 54.65 142.56 52.13 105.7 52.13 105.7 105.74 142.56 54.65"/><circle class="cls-5" cx="124.13" cy="124.57" r="3.82"/></g></g></svg>