<svg xmlns="http://www.w3.org/2000/svg" viewBox="0 0 156.78 159.78"><defs><style>.cls-1{isolation:isolate;}.cls-2{fill:#b8d762;}.cls-3{opacity:0.5;mix-blend-mode:soft-light;}.cls-4{fill:#fff;fill-rule:evenodd;}</style></defs><title>Fichier 5</title><g class="cls-1"><g id="Calque_2" data-name="Calque 2"><g id="elements"><path d="M143.78,3H13A13,13,0,0,0,0,16V146.78a13,13,0,0,0,13,13H143.78a13,13,0,0,0,13-13V16A13,13,0,0,0,143.78,3Z"/><rect class="cls-2" width="156.78" height="156.78" rx="13" ry="13"/><path class="cls-3" d="M143.78,156.78a13,13,0,0,0,13-13V13a13,13,0,0,0-13-13H78.39V156.78Z"/><path class="cls-4" d="M122.91,61c-1.87,3.23-32,3.1-35.18,1.23-1.17-.67.53-5.31,3.3-10.87a29.84,29.84,0,0,0-38.49,12.1A7.46,7.46,0,1,1,39.61,56,44.74,44.74,0,0,1,98.47,38.43c3.48-5.3,6.73-9.2,7.91-8.51C109.61,31.78,124.77,57.77,122.91,61ZM65.76,105.42a29.84,29.84,0,0,0,38.49-12.1,7.46,7.46,0,1,1,12.93,7.46,44.75,44.75,0,0,1-58.87,17.57c-3.48,5.29-6.72,9.2-7.9,8.51C47.17,125,32,99,33.88,95.78s32-3.1,35.19-1.23C70.22,95.22,68.53,99.87,65.76,105.42Z"/></g></g></g></svg>