<svg xmlns="http://www.w3.org/2000/svg" viewBox="0 0 159.26 155.21"><defs><style>.cls-1{fill:#9dbfc8;}.cls-2{fill:#80a1a8;}</style></defs><title>Fichier 1</title><g id="Calque_2" data-name="Calque 2"><g id="elements"><path d="M79.63,3C35.65,3,0,31.72,0,67.16c0,1,0,2,.09,2.94,0,0,0,0,0,.06h0c1.26,22.09,16.37,41.26,38.51,52v26.66a6.4,6.4,0,0,0,11,4.42l21.25-22.3c2.87.25,5.78.39,8.73.39,44,0,79.63-28.72,79.63-64.16S123.61,3,79.63,3Z"/><path class="cls-1" d="M79.63,0C35.65,0,0,28.72,0,64.16c0,23.34,15.48,43.77,38.61,55v26.66a6.4,6.4,0,0,0,11,4.42l21.25-22.3c2.87.25,5.78.39,8.73.39,44,0,79.63-28.72,79.63-64.16S123.61,0,79.63,0Z"/><path class="cls-2" d="M79.63,6c42.73,0,77.59,27.12,79.53,61.16.06-1,.09-2,.09-3C159.26,28.72,123.61,0,79.63,0S0,28.72,0,64.16c0,1,0,2,.09,3C2,33.12,36.9,6,79.63,6Z"/></g></g></svg>