<svg xmlns="http://www.w3.org/2000/svg" viewBox="0 0 133.98 131.16"><defs><style>.Graphic-Style{opacity:0.5;}.cls-1{fill:#c6c7bf;}</style></defs><title>Fichier 3</title><g id="Calque_2" data-name="Calque 2"><g id="Layer_1" data-name="Layer 1"><path class="Graphic-Style" d="M12.8,124.9l-3.14-3.14A33.08,33.08,0,0,1,9.66,75L72,12.66a33.08,33.08,0,0,1,46.73,0l5.56,5.56a33.08,33.08,0,0,1,0,46.73L82.38,106.89A4.5,4.5,0,0,1,76,100.53l41.94-41.94a24.07,24.07,0,0,0,0-34L112.39,19a24.07,24.07,0,0,0-34,0L16,81.39a24.07,24.07,0,0,0,0,34l3.14,3.14a12.44,12.44,0,0,0,17.57,0l66.47-66.47A12.42,12.42,0,0,0,85.64,34.5L22.43,97.7a4.5,4.5,0,0,1-6.37-6.36L79.28,28.13a21.42,21.42,0,0,1,30.29,30.29L43.1,124.9A21.45,21.45,0,0,1,12.8,124.9Z"/><path class="cls-1" d="M12.8,121.9l-3.14-3.14A33.08,33.08,0,0,1,9.66,72L72,9.66a33.08,33.08,0,0,1,46.73,0l5.56,5.56a33.08,33.08,0,0,1,0,46.73L82.38,103.89A4.5,4.5,0,0,1,76,97.53l41.94-41.94a24.07,24.07,0,0,0,0-34L112.39,16a24.07,24.07,0,0,0-34,0L16,78.39a24.07,24.07,0,0,0,0,34l3.14,3.14a12.44,12.44,0,0,0,17.57,0l66.47-66.47A12.42,12.42,0,0,0,85.64,31.5L22.43,94.7a4.5,4.5,0,0,1-6.37-6.36L79.28,25.13a21.42,21.42,0,0,1,30.29,30.29L43.1,121.9A21.45,21.45,0,0,1,12.8,121.9Z"/></g></g></svg>