<svg xmlns="http://www.w3.org/2000/svg" viewBox="0 0 156.78 156.78"><defs><style>.cls-1{isolation:isolate;}.cls-2{fill:#b8d762;}.cls-3{opacity:0.5;mix-blend-mode:soft-light;}.cls-4{fill:#fff;}</style></defs><title>Fichier 5</title><g class="cls-1"><g id="Calque_2" data-name="Calque 2"><g id="elements"><rect class="cls-2" width="156.78" height="156.78" rx="13" ry="13"/><path class="cls-3" d="M143.78,156.78a13,13,0,0,0,13-13V13a13,13,0,0,0-13-13H78.39V156.78Z"/><path class="cls-4" d="M40.54,65a2.3,2.3,0,0,0-3.24,0l-15,14.79a2.32,2.32,0,0,0,0,3.26l41.34,42.44a2.27,2.27,0,0,0,3.22,0l71.75-71.36a2.19,2.19,0,0,0-.05-3.17l-16.18-15A2.45,2.45,0,0,0,119,36L66,87.5a2.32,2.32,0,0,1-3.26,0Z"/></g></g></g></svg>