<svg xmlns="http://www.w3.org/2000/svg" viewBox="0 0 145.68 145.68"><defs><style>.cls-1{fill:#fdfae9;}.cls-2{fill:#cb9f32;}.cls-3{fill:#fff;opacity:0.2;}</style></defs><title>Fichier 2</title><g id="Calque_2" data-name="Calque 2"><g id="elements"><path class="cls-1" d="M142.22,17.43a12.28,12.28,0,0,0-10.67-3.3,12.28,12.28,0,0,0-3.3-10.66c-5-5-13.5-4.53-19,1s-6,14.05-1,19a11.53,11.53,0,0,0,2.3,1.77l-11,11,9.9,9.9,11-11a11.59,11.59,0,0,0,1.77,2.3c5,5,13.5,4.53,19-1S147.2,22.4,142.22,17.43Z"/><path class="cls-2" d="M104.4,93.78a23.25,23.25,0,0,1,2.89-9.59c9.17-16.56,9.38-34.48-1-44.83s-28.26-10.13-44.83-1a23.42,23.42,0,0,1-9.6,2.89A55.86,55.86,0,0,0,16.56,57.7C-4.52,78.78-5.62,111.86,14.1,131.58S66.9,150.2,88,129.12A55.87,55.87,0,0,0,104.4,93.78Z"/><path class="cls-3" d="M55.33,98.73c-11.48,11.48-28.23,13.35-37.41,4.17S10.62,77,22.1,65.5s33.47-16,42.64-6.77S66.81,87.25,55.33,98.73Z"/></g></g></svg>