<svg xmlns="http://www.w3.org/2000/svg" viewBox="0 0 132.07 158.65"><defs><style>.Graphic-Style{opacity:0.5;}.cls-1{fill:#cbc9ba;}.cls-2{fill:#bba166;}.cls-3{fill:#fdfae9;}.cls-4{fill:#aaab9d;}.cls-5{fill:#7b979b;}.cls-6{fill:#697e83;}.cls-7{fill:#fff;opacity:0.2;}</style></defs><title>Fichier 3</title><g id="Calque_2" data-name="Calque 2"><g id="elements"><path class="Graphic-Style" d="M118.07,3H14A14,14,0,0,0,0,17V144.65a14,14,0,0,0,14,14H118.07a14,14,0,0,0,14-14V17A14,14,0,0,0,118.07,3Z"/><rect class="cls-1" width="132.07" height="155.65" rx="14" ry="14"/><path class="cls-2" d="M66,99.57v56.08h52a14,14,0,0,0,14-14V99.57Z"/><polygon class="cls-3" points="53.44 78.23 38.6 78.23 38.6 63.4 32.1 63.4 32.1 78.23 17.27 78.23 17.27 84.73 32.1 84.73 32.1 99.57 38.6 99.57 38.6 84.73 53.44 84.73 53.44 78.23"/><rect class="cls-3" x="78.63" y="78.23" width="36.17" height="6.5"/><polygon class="cls-3" points="50.44 138.09 39.95 127.61 50.44 117.12 45.84 112.52 35.35 123.01 24.86 112.52 20.27 117.12 30.76 127.61 20.27 138.1 24.86 142.69 35.35 132.2 45.84 142.69 50.44 138.09"/><rect class="cls-3" x="78.63" y="114.6" width="36.17" height="6.5"/><rect class="cls-3" x="78.63" y="130.45" width="36.17" height="6.5"/><path class="cls-4" d="M118.07,0H14A14,14,0,0,0,0,14V54.86H132.07V14A14,14,0,0,0,118.07,0Z"/><rect class="cls-5" x="10.36" y="10.97" width="111.35" height="34.95"/><rect class="cls-6" x="10.36" y="10.97" width="111.35" height="8.94"/><polygon class="cls-7" points="83.74 10.97 10.36 10.97 10.36 45.92 53.05 45.92 83.74 10.97"/></g></g></svg>