<svg xmlns="http://www.w3.org/2000/svg" viewBox="0 0 156.78 159.78"><defs><style>.cls-1{isolation:isolate;}.cls-2,.cls-5{fill-rule:evenodd;}.cls-3{fill:#4d464e;}.cls-4{opacity:0.5;mix-blend-mode:soft-light;}.cls-5{fill:#fff;}</style></defs><title>Fichier 3</title><g class="cls-1"><g id="Calque_2" data-name="Calque 2"><g id="elements"><path class="cls-2" d="M143.78,3H13A13,13,0,0,0,0,16V146.78a13,13,0,0,0,13,13H143.78a13,13,0,0,0,13-13V16A13,13,0,0,0,143.78,3Z"/><rect class="cls-3" width="156.78" height="156.78" rx="13" ry="13"/><path class="cls-4" d="M143.78,156.78a13,13,0,0,0,13-13V13a13,13,0,0,0-13-13H78.39V156.78Z"/><path class="cls-5" d="M125.79,96.62a25.77,25.77,0,0,1-35,1.33L92.73,96l-2,2L57.08,64.37l-.14.14a17.8,17.8,0,1,0,0,27.76l.14.14,2.8-2.8h0l2.8-2.8a4,4,0,0,1,5.61,5.61l-4.21,4.21h0L62.68,98a4,4,0,0,1-1.32.88,25.74,25.74,0,1,1,1.25-40.06l-1.94,1.93,2-2L96.33,92.41l.14-.14a17.8,17.8,0,1,0,0-27.76l-.14-.14L90.73,70a4,4,0,0,1-5.61-5.61l4.21-4.21h0l1.4-1.4a4,4,0,0,1,1.1-.74,25.75,25.75,0,0,1,34,38.59Z"/></g></g></g></svg>