<svg xmlns="http://www.w3.org/2000/svg" viewBox="0 0 139.91 150.79"><defs><style>.cls-1{opacity:0.5;}.cls-2{font-size:74.33px;font-family:Roboto-Bold, Roboto Bold;font-weight:700;}.cls-3{fill:#e9e1ca;}.cls-4{fill:#f25647;}.cls-5{opacity:0.2;}.cls-6{fill:#cccabd;}.cls-7{fill:#cecbc6;}.cls-8{fill:#8a877e;}</style></defs><title>Fichier 4</title><g id="Calque_2" data-name="Calque 2"><g id="elements"><g class="cls-1"><text class="cls-2" transform="translate(27.31 127.74)">01</text></g><path class="cls-1" d="M127.91,14.51h-9.8V3H103.57V14.51H38.76V3H24.23V14.51H12a12,12,0,0,0-12,12V138.79a12,12,0,0,0,12,12H127.91a12,12,0,0,0,12-12V26.51A12,12,0,0,0,127.91,14.51Z"/><rect class="cls-3" y="11.51" width="139.91" height="136.28" rx="12" ry="12"/><path class="cls-4" d="M127.91,11.51H12a12,12,0,0,0-12,12v31H139.91v-31A12,12,0,0,0,127.91,11.51Z"/><rect class="cls-5" y="48.46" width="139.91" height="6.06"/><text class="cls-2" transform="translate(27.31 124.74)">01</text><rect class="cls-6" x="24.23" width="14.54" height="35.74"/><rect class="cls-7" x="103.57" width="14.54" height="35.74"/><rect class="cls-8" x="24.23" y="30.41" width="14.54" height="5.33"/><rect class="cls-8" x="103.57" y="30.41" width="14.54" height="5.33"/></g></g></svg>