<svg xmlns="http://www.w3.org/2000/svg" viewBox="0 0 183.18 164.39"><defs><style>.cls-1{isolation:isolate;}.cls-2,.cls-5,.cls-8{opacity:0.5;}.cls-3{fill:#e28d78;}.cls-4{fill:#de9972;}.cls-5{mix-blend-mode:soft-light;}.cls-6{fill:#e29579;}.cls-7{fill:#ffa080;}.cls-8{fill:#fff;}</style></defs><title>Fichier 2</title><g class="cls-1"><g id="Calque_2" data-name="Calque 2"><g id="elements"><path class="cls-2" d="M174.64,113.19,183.18,66H159.66a74.06,74.06,0,0,0-20.87-34.42L144,5.13a1.14,1.14,0,0,0-1.64-1.24l-25.48,13A85.73,85.73,0,0,0,81.06,9.09C36.29,9.09,0,42.84,0,84.47c0,19.91,8.32,38,21.88,51.48L10.81,149.6s18.77,14.79,31.86,14.79l4-7.08h0l2.09-3.71a86.67,86.67,0,0,0,65.94-.54l1.17,4.1h0l1.91,6.67s21-4.55,33-16.5l-6.46-9.26h0l-2.54-3.65A74.8,74.8,0,0,0,156,113.19ZM107.17,43.88A47.9,47.9,0,0,0,81.07,36.4h0a47.75,47.75,0,0,0-26.69,7.87A4.4,4.4,0,1,1,49.48,37,56.52,56.52,0,0,1,81.06,27.6h0a56.66,56.66,0,0,1,30.88,8.9,4.4,4.4,0,1,1-4.77,7.38Zm38.17,46c-4.24,0-7.68-5.35-7.68-11.95S141.1,66,145.35,66,153,71.33,153,77.92,149.59,89.87,145.35,89.87Z"/><path class="cls-3" d="M155.3,62.21h27.87l-8.53,47.22H150.75A57,57,0,0,0,155.3,62.21Z"/><path class="cls-4" d="M112.07,140.15l5.69,19.91s21-4.55,33-16.5l-13.08-18.77Z"/><path class="cls-5" d="M137.67,124.79l-25.6,15.36,3.78,13.24a85.84,85.84,0,0,0,28.45-19.09Z"/><path class="cls-6" d="M27.87,124.79l-17.07,21s18.77,14.79,31.86,14.79l10.24-18.2Z"/><path class="cls-5" d="M19.13,135.56a86,86,0,0,0,27.52,18l6.25-11.12-25-17.64Z"/><path class="cls-4" d="M112.07,15.56,142.4.12A1.14,1.14,0,0,1,144,1.37l-6.94,35Z"/><path class="cls-7" d="M81.06,5.32C36.29,5.32,0,39.07,0,80.7s36.29,75.38,81.06,75.38,81.06-33.75,81.06-75.38S125.83,5.32,81.06,5.32Zm32.19,33.49a4.4,4.4,0,0,1-6.08,1.3,47.9,47.9,0,0,0-26.11-7.49h0A47.76,47.76,0,0,0,54.37,40.5a4.4,4.4,0,1,1-4.89-7.31,56.51,56.51,0,0,1,31.58-9.36h0a56.66,56.66,0,0,1,30.88,8.9A4.4,4.4,0,0,1,113.25,38.81ZM145.35,86.1c-4.24,0-7.68-5.35-7.68-11.95s3.44-11.95,7.68-11.95S153,67.56,153,74.16,149.59,86.1,145.35,86.1Z"/><circle class="cls-8" cx="33.11" cy="57.54" r="16.61"/></g></g></g></svg>