<svg xmlns="http://www.w3.org/2000/svg" viewBox="0 0 144.08 147.07"><defs><style>.cls-1{isolation:isolate;}.cls-2,.cls-4{opacity:0.5;}.cls-3{fill:#a8867a;}.cls-4{mix-blend-mode:soft-light;}.cls-5{fill:#ffffef;}.cls-6{fill:#f5efdf;}</style></defs><title>Fichier 8</title><g class="cls-1"><g id="Calque_2" data-name="Calque 2"><g id="elements"><path class="cls-2" d="M143.76,57.25c.05-.66.1-1.31.14-2s.09-1.6.11-2.39c0-.46,0-.92,0-1.39s0-1.13,0-1.7c0-.41,0-.82,0-1.23,0-.91,0-1.81-.06-2.72a95.07,95.07,0,0,0-6.12-30.15,11.26,11.26,0,0,0-6.51-6.51,95.08,95.08,0,0,0-30.14-6.12Q99.86,3,98.5,3H97.25L95.59,3l-1.43,0h-.12c-1.42.05-2.84.14-4.26.25l-.63.05A97.88,97.88,0,0,0,.38,92.1c0,.25,0,.51-.06.76-.05.64-.1,1.27-.14,1.91Q.11,96,.06,97.2c0,.44,0,.88,0,1.33,0,.59,0,1.19,0,1.78,0,.39,0,.78,0,1.18,0,.93,0,1.87.06,2.8h0A95.07,95.07,0,0,0,6.2,134.37a11.26,11.26,0,0,0,2.56,4h0a11.54,11.54,0,0,0,.88.79l.12.09a11.23,11.23,0,0,0,3,1.68A95.07,95.07,0,0,0,42.8,147h0q1.4.05,2.8.06h1.17l1.77,0,1.34,0q1.21,0,2.42-.12l1.91-.14.77-.06q3.37-.3,6.72-.82h0a97,97,0,0,0,22.91-6.6,97.82,97.82,0,0,0,30.79-20.85,98.39,98.39,0,0,0,15-19.3A97,97,0,0,0,143.7,58C143.72,57.72,143.74,57.49,143.76,57.25Z"/><path class="cls-3" d="M137.88,12.71a11.25,11.25,0,0,0-6.51-6.51A97.4,97.4,0,0,0,6.2,131.37a11.26,11.26,0,0,0,6.51,6.51,96.78,96.78,0,0,0,102.71-22.46A96.79,96.79,0,0,0,137.88,12.71Z"/><path class="cls-4" d="M8.75,135.32a11.28,11.28,0,0,0,4,2.56,96.79,96.79,0,0,0,102.71-22.46A96.78,96.78,0,0,0,137.88,12.71a11.24,11.24,0,0,0-2.56-4Z"/><path class="cls-5" d="M142.87,61.73A96.72,96.72,0,0,0,144,42.8L101.27.08A96.82,96.82,0,0,0,82.35,1.21Z"/><path class="cls-5" d="M1.21,82.35A96.66,96.66,0,0,0,.08,101.27L42.8,144a96.82,96.82,0,0,0,18.92-1.13Z"/><rect class="cls-6" x="89.52" y="37.49" width="7.74" height="20.63" transform="translate(-6.45 80.04) rotate(-45)"/><rect class="cls-6" x="78.58" y="48.43" width="7.74" height="20.63" transform="translate(-17.39 75.5) rotate(-45)"/><rect class="cls-6" x="67.64" y="59.37" width="7.74" height="20.63" transform="translate(-28.33 70.97) rotate(-45)"/><rect class="cls-6" x="56.7" y="70.31" width="7.74" height="20.63" transform="translate(-39.27 66.44) rotate(-45)"/><rect class="cls-6" x="45.76" y="81.25" width="7.74" height="20.63" transform="translate(-50.21 61.9) rotate(-45)"/></g></g></g></svg>