<svg xmlns="http://www.w3.org/2000/svg" viewBox="0 0 156.78 159.78"><defs><style>.cls-1{isolation:isolate;}.cls-2,.cls-5{fill-rule:evenodd;}.cls-3{fill:#ee2a7b;}.cls-4{opacity:0.5;mix-blend-mode:soft-light;}.cls-5{fill:#fff;}</style></defs><title>Fichier 5</title><g class="cls-1"><g id="Calque_2" data-name="Calque 2"><g id="elements"><path class="cls-2" d="M143.78,3H13A13,13,0,0,0,0,16V146.78a13,13,0,0,0,13,13H143.78a13,13,0,0,0,13-13V16A13,13,0,0,0,143.78,3Z"/><rect class="cls-3" width="156.78" height="156.78" rx="13" ry="13"/><path class="cls-4" d="M143.78,156.78a13,13,0,0,0,13-13V13a13,13,0,0,0-13-13H78.39V156.78Z"/><path class="cls-5" d="M111.62,108.45v.15H45.16v-.15A10.54,10.54,0,0,1,36.1,98V70.84a10.54,10.54,0,0,1,9.06-10.42v-.15h9.06c0-3,9.06-12.08,12.08-12.08H90.47c3,0,12.08,9.06,12.08,12.08h9.06v.15a10.54,10.54,0,0,1,9.06,10.42V98A10.54,10.54,0,0,1,111.62,108.45ZM78.39,63.29A18.13,18.13,0,1,0,96.52,81.41,18.12,18.12,0,0,0,78.39,63.29Zm0,30.21A12.08,12.08,0,1,1,90.47,81.41,12.08,12.08,0,0,1,78.39,93.5Z"/></g></g></g></svg>