<svg xmlns="http://www.w3.org/2000/svg" viewBox="0 0 154.91 143.74"><defs><style>.cls-1{isolation:isolate;}.Graphic-Style,.cls-3{opacity:0.5;}.cls-2{fill:#ec5947;}.cls-3{mix-blend-mode:soft-light;}</style></defs><title>Fichier 15</title><g class="cls-1"><g id="Calque_2" data-name="Calque 2"><g id="elements"><path class="Graphic-Style" d="M116.78,3C83.15,3,77.46,17.49,77.46,17.49S71.76,3,38.13,3-6.89,39.22,4,63s73.48,80.72,73.48,80.72S140.07,86.82,150.93,63,150.41,3,116.78,3Z"/><path class="cls-2" d="M77.46,140.74S140.07,83.82,150.93,60s-.52-60-34.15-60S77.46,14.49,77.46,14.49,71.76,0,38.13,0-6.89,36.22,4,60,77.46,140.74,77.46,140.74Z"/><path class="cls-3" d="M150.93,60c10.87-23.8-.52-60-34.15-60S77.46,14.49,77.46,14.49V140.74S140.07,83.82,150.93,60Z"/></g></g></g></svg>